M48
;Layer_Color=9474304
;FILE_FORMAT=2:5
INCH,LZ
;TYPE=PLATED
T01F00S00C0.02200
T02F00S00C0.02756
T03F00S00C0.02800
T04F00S00C0.03150
T05F00S00C0.03200
T06F00S00C0.03400
T07F00S00C0.04213
%
T01
X02Y0022874
Y0065
Y0095
Y0137126
T02
X003Y0099988
X0045
Y0130012
X003
T03
X043Y003
X0355Y001
X03Y0025
X0215Y0035
X0160156Y0010933
X0100156Y0005933
X0115156Y0075933
X0084569Y008
X002Y012
X0135Y011
X0180156Y0110933
X017Y008
X0215Y0125
X0305Y0135
Y0085
X0275Y008
X043Y0135
X048Y014
X0485Y011
T04
X0275Y0016693
X029Y0018347
X0355Y0028346
X037
X0390936Y004
X0410621
X0245Y0025315
Y0045
Y0115157
Y0134843
X0275Y0141654
X029
Y0098347
X0275
Y006
X029Y0061654
X0355Y0071653
X037
Y0098347
X0355
Y0141654
X037
X0390936Y0125
X0410621
X0445157Y011
X0464843
Y0055
X0445157
T05
X0040315Y002
X006
T06
X0325Y0025
X034
X0215Y0045
Y0065
Y0095
Y0115
X0325Y0099
X034
Y0071
X0325
Y0145
X034
T07
X0394938Y001
X0404938
X0414938
X0424938
X001Y01
Y011
Y012
Y013
X0495
Y012
Y011
Y01
M30
