G04*
G04 #@! TF.GenerationSoftware,Altium Limited,Altium Designer,26.1.1 (7)*
G04*
G04 Layer_Physical_Order=1*
G04 Layer_Color=255*
%FSLAX25Y25*%
%MOIN*%
G70*
G04*
G04 #@! TF.SameCoordinates,567AFDD2-51B0-4D06-BB96-2A6C27C88ABC*
G04*
G04*
G04 #@! TF.FilePolarity,Positive*
G04*
G01*
G75*
%ADD15C,0.01000*%
%ADD18R,0.05700X0.04200*%
%ADD20R,0.02992X0.05512*%
%ADD22R,0.04200X0.01100*%
%ADD24R,0.01873X0.05335*%
G04:AMPARAMS|DCode=25|XSize=53.35mil|YSize=18.73mil|CornerRadius=9.37mil|HoleSize=0mil|Usage=FLASHONLY|Rotation=90.000|XOffset=0mil|YOffset=0mil|HoleType=Round|Shape=RoundedRectangle|*
%AMROUNDEDRECTD25*
21,1,0.05335,0.00000,0,0,90.0*
21,1,0.03462,0.01873,0,0,90.0*
1,1,0.01873,0.00000,0.01731*
1,1,0.01873,0.00000,-0.01731*
1,1,0.01873,0.00000,-0.01731*
1,1,0.01873,0.00000,0.01731*
%
%ADD25ROUNDEDRECTD25*%
%ADD28R,0.04724X0.04724*%
%ADD30R,0.05400X0.05400*%
%ADD31C,0.04724*%
%ADD33R,0.04200X0.04200*%
%ADD34C,0.04200*%
%ADD35C,0.05400*%
%ADD36R,0.05200X0.05200*%
%ADD37C,0.05200*%
G04:AMPARAMS|DCode=42|XSize=25.59mil|YSize=64.96mil|CornerRadius=1.92mil|HoleSize=0mil|Usage=FLASHONLY|Rotation=0.000|XOffset=0mil|YOffset=0mil|HoleType=Round|Shape=RoundedRectangle|*
%AMROUNDEDRECTD42*
21,1,0.02559,0.06112,0,0,0.0*
21,1,0.02175,0.06496,0,0,0.0*
1,1,0.00384,0.01088,-0.03056*
1,1,0.00384,-0.01088,-0.03056*
1,1,0.00384,-0.01088,0.03056*
1,1,0.00384,0.01088,0.03056*
%
%ADD42ROUNDEDRECTD42*%
%ADD43R,0.04016X0.04173*%
%ADD44R,0.04173X0.04016*%
%ADD45R,0.13780X0.35433*%
%ADD46C,0.06319*%
%ADD47C,0.04528*%
%ADD48R,0.06319X0.06319*%
%ADD49R,0.06319X0.06319*%
%ADD50R,0.04528X0.04528*%
%ADD51R,0.04528X0.04528*%
%ADD52C,0.05000*%
D15*
X315000Y60000D02*
Y60657D01*
X312500Y63157D02*
X315000Y60657D01*
X312500Y63157D02*
Y68878D01*
X330000Y125000D02*
X375000D01*
X325000Y130000D02*
Y145000D01*
Y130000D02*
X330000Y125000D01*
X312500Y91122D02*
Y117500D01*
X325000Y130000D01*
X290000Y80000D02*
X325000D01*
X330000Y85000D01*
X335000D01*
X290000Y61654D02*
Y80000D01*
Y91673D01*
X325000Y40000D02*
X330000Y45000D01*
X380000D01*
X325000Y40000D02*
X325000D01*
Y25000D02*
Y40000D01*
X307500Y57500D02*
X325000Y40000D01*
X307500Y57500D02*
Y68878D01*
X380000Y45000D02*
X390000Y55000D01*
X335000Y85000D02*
X355000D01*
Y98347D01*
X321386Y74614D02*
X325000Y71000D01*
X303488Y74614D02*
X321386D01*
X302500Y73626D02*
X303488Y74614D01*
X302500Y68878D02*
Y73626D01*
X297500Y25660D02*
Y68878D01*
X290000Y18160D02*
X297500Y25660D01*
X302500Y91122D02*
Y129340D01*
X290000Y141840D02*
X302500Y129340D01*
X289907Y141747D02*
X290000Y141840D01*
X275093Y141747D02*
X289907D01*
X275000Y141654D02*
X275093Y141747D01*
X375000Y125000D02*
X390000Y110000D01*
X318544Y92544D02*
X325000Y99000D01*
X318544Y90630D02*
Y92544D01*
X314288Y86374D02*
X318544Y90630D01*
X310279Y86374D02*
X314288D01*
X307500Y89153D02*
X310279Y86374D01*
X307500Y89153D02*
Y91122D01*
X296949Y91673D02*
X297500Y91122D01*
X290000Y91673D02*
X296949D01*
X290000D02*
Y98347D01*
X84453Y80116D02*
Y91648D01*
Y80116D02*
X84569Y80000D01*
X82866Y93156D02*
X82945D01*
X84453Y91648D01*
X119817Y80594D02*
Y85594D01*
X115156Y75933D02*
X119817Y80594D01*
Y85594D02*
X120156Y85933D01*
X125156Y99437D02*
Y109414D01*
X10000Y120000D02*
X20000D01*
X19994Y120006D02*
X20000Y120000D01*
X55000Y115000D02*
Y125012D01*
X19994Y120006D02*
Y130000D01*
X29988D01*
X10000D02*
X19994D01*
X29988D02*
X30000Y130012D01*
X50000D02*
X55000Y125012D01*
X30000Y130012D02*
X45000D01*
X50000D01*
X65638Y107850D02*
X69200D01*
X70000Y108650D01*
X60000Y110000D02*
X63488D01*
X65638Y107850D01*
X80064Y108650D02*
X81664Y110250D01*
X125156Y109414D02*
X125741Y110000D01*
X135000D01*
X55000Y115000D02*
X60000Y110000D01*
X81664Y110250D02*
Y111664D01*
X85000Y115000D01*
X100000D01*
X215000Y35000D02*
Y45000D01*
X275000Y60000D02*
Y80000D01*
X420621Y30000D02*
X430000D01*
X410621Y40000D02*
X420621Y30000D01*
X170000Y80000D02*
X175156Y85156D01*
X275000Y80000D02*
Y98347D01*
X175156Y85156D02*
Y89181D01*
X180156Y102685D02*
Y110933D01*
X215000Y115000D02*
Y125000D01*
X410621D02*
X420000Y134379D01*
X429379D01*
X430000Y135000D01*
X485000Y140000D02*
X495000Y130000D01*
X480000Y140000D02*
X485000D01*
X370000Y71653D02*
Y98347D01*
X114223Y10000D02*
X115156Y10933D01*
X170156Y11518D02*
Y15933D01*
X169570Y10933D02*
X170156Y11518D01*
X100000Y10000D02*
X114223D01*
X164304Y10933D02*
X169570D01*
X164000Y11236D02*
X164304Y10933D01*
X115156Y9673D02*
Y10933D01*
X70000Y108650D02*
X80000D01*
X80064D01*
X115156Y9673D02*
X119914Y4914D01*
X125698D01*
X128518Y2094D01*
X137094D01*
X141376Y6376D01*
X152778Y10175D02*
X155549D01*
X159707Y14333D01*
Y19707D01*
X135000Y15000D02*
X139978D01*
Y12225D02*
Y15000D01*
X152778Y6175D02*
X153952Y5000D01*
X173311D01*
X177147Y8836D01*
X193160D01*
X137978Y8175D02*
X141578D01*
X136645Y6842D02*
X137978Y8175D01*
X133394Y6842D02*
X136645D01*
X132645Y6094D02*
X133394Y6842D01*
X187897Y3393D02*
X408331Y3393D01*
X193160Y8836D02*
X344414Y8836D01*
X139978Y12225D02*
X140028Y12175D01*
X141578D01*
X120741Y15933D02*
X125933D01*
X135156Y25156D01*
Y85933D01*
X120156Y16518D02*
Y24437D01*
Y16518D02*
X120741Y15933D01*
X150000Y80000D02*
X152778Y77222D01*
Y12175D02*
Y77222D01*
X155156Y95347D02*
X155741Y95933D01*
X180156Y75586D02*
Y95347D01*
X155741Y95933D02*
X179570D01*
X180156Y95347D01*
X155156Y51518D02*
Y95347D01*
X155741Y50933D02*
X170156D01*
X155156Y51518D02*
X155741Y50933D01*
X180156Y14673D02*
Y15933D01*
X172719Y7236D02*
X180156Y14673D01*
X160486Y7236D02*
X172719D01*
X159548Y8175D02*
X160486Y7236D01*
X152778Y8175D02*
X159548D01*
X125156Y10933D02*
X125914Y10175D01*
X141578D01*
X408331Y3393D02*
X414938Y10000D01*
X345000Y9422D02*
Y19414D01*
X344414Y8836D02*
X345000Y9422D01*
X100586Y47138D02*
X114719D01*
X100000Y47723D02*
Y90347D01*
X102000Y54088D02*
Y75773D01*
Y54088D02*
X104059Y52029D01*
X112160Y85933D02*
X115156D01*
X100586Y90933D02*
X124570D01*
X100000Y90347D02*
X100586Y90933D01*
X100000Y47723D02*
X100586Y47138D01*
X102000Y75773D02*
X112160Y85933D01*
X104059Y52029D02*
X125000D01*
X345000Y19414D02*
X345586Y20000D01*
X394938D01*
X404938Y10000D01*
X100000Y101037D02*
X114160D01*
X115156Y100040D01*
X88233Y101350D02*
X88569Y101014D01*
X80000Y101350D02*
X88233D01*
X115156Y99437D02*
Y100040D01*
X88569Y101014D02*
X88591Y101037D01*
X88569Y48568D02*
Y101014D01*
X60000Y20000D02*
X88569Y48568D01*
X100000Y101037D02*
Y109268D01*
X88591Y101037D02*
X100000D01*
X70114Y101236D02*
X73764D01*
X75000Y95211D02*
X77055Y93156D01*
X75000Y95211D02*
Y100000D01*
X70000Y101350D02*
X70114Y101236D01*
X73764D02*
X75000Y100000D01*
X77055Y93156D02*
X77134D01*
X45000Y99988D02*
X68638D01*
X70000Y101350D01*
X10000Y100000D02*
X10012Y99988D01*
X20006D01*
X9488Y59095D02*
Y99488D01*
X10000Y100000D01*
X30000Y99988D02*
X45000D01*
X20006D02*
X30000D01*
X10000Y110000D02*
X19420D01*
X20006Y109414D01*
Y99988D02*
Y109414D01*
X115741Y115000D02*
X169570D01*
X115156Y114414D02*
X115741Y115000D01*
X115156Y99437D02*
Y114414D01*
X170156Y102685D02*
Y114414D01*
X169570Y115000D02*
X170156Y114414D01*
X495000Y120000D02*
X500234D01*
X501844Y118390D01*
Y92001D02*
Y118390D01*
X464843Y55000D02*
X501844Y92001D01*
X179570Y75000D02*
X180156Y75586D01*
X165741Y75000D02*
X179570D01*
X165156Y74414D02*
X165741Y75000D01*
X165156Y61518D02*
Y74414D01*
X485000Y110000D02*
X495000D01*
X474843Y100000D02*
X495000D01*
X464843Y110000D02*
X474843Y100000D01*
X355000Y71653D02*
Y85000D01*
X390000Y110000D02*
X445157D01*
X390000Y55000D02*
X445157D01*
X378504Y28346D02*
X390158Y40000D01*
X369221Y28346D02*
X378504D01*
X373346Y141654D02*
X390158Y124843D01*
X355000Y28346D02*
X369221D01*
X351654Y25000D02*
X355000Y28346D01*
X340000Y25000D02*
X351654D01*
X325000Y71000D02*
X340000D01*
X369064Y141654D02*
X373346D01*
X355000D02*
X369064D01*
X351654Y145000D02*
X355000Y141654D01*
X340000Y145000D02*
X351654D01*
X325000Y99000D02*
X340000D01*
X288992Y18347D02*
X290000D01*
X287339Y16693D02*
X288992Y18347D01*
X275000Y16693D02*
X287339D01*
X266378Y25315D02*
X275000Y16693D01*
X245000Y25315D02*
X266378D01*
X225000Y65000D02*
X245000Y45000D01*
X215000Y65000D02*
X225000D01*
X200000D02*
X215000D01*
X175741Y25000D02*
X197863D01*
X175156Y25586D02*
Y29437D01*
Y25586D02*
X175741Y25000D01*
X197863D02*
X199989Y22874D01*
X200000D01*
X268189Y134843D02*
X275000Y141654D01*
X245000Y134843D02*
X268189D01*
X224843Y95000D02*
X245000Y115157D01*
X215000Y95000D02*
X224843D01*
X200000D02*
X215000D01*
X190000Y127126D02*
X200000Y137126D01*
X190000Y98429D02*
Y127126D01*
X70512Y50197D02*
Y70906D01*
X40315Y20000D02*
X70512Y50197D01*
X114719Y47138D02*
X115156Y46701D01*
X114752Y59088D02*
X115156Y58685D01*
X107000Y59088D02*
X114752D01*
X105156Y60933D02*
X107000Y59088D01*
X105156Y60933D02*
Y70347D01*
X105741Y70933D01*
X125156Y24437D02*
Y25696D01*
X115156Y24437D02*
Y30666D01*
X125156Y25696D02*
X130156Y30696D01*
X115156Y30666D02*
X120180Y35690D01*
X115156Y30666D02*
Y36895D01*
X120180Y35690D02*
X124719D01*
X125156Y36127D01*
Y37857D01*
X130156Y30696D02*
Y60735D01*
X115156Y44970D02*
Y46701D01*
X125000Y46088D02*
X125156Y45933D01*
X125000Y46088D02*
Y52029D01*
Y57971D01*
X115156Y57857D02*
Y58685D01*
X180156Y29437D02*
Y30696D01*
X170156Y29437D02*
Y36147D01*
X174698Y40690D01*
X170156Y36147D02*
Y42857D01*
X174698Y40690D02*
X179916D01*
X180352Y41126D01*
Y42857D01*
Y50933D02*
Y55347D01*
X179767Y55933D02*
X180352Y55347D01*
X160741Y55933D02*
X179767D01*
X160156Y56518D02*
X160741Y55933D01*
X179767D02*
X180352Y56518D01*
Y60933D01*
X124844Y66046D02*
X130156Y60735D01*
X115269Y66046D02*
X124844D01*
X105741Y70933D02*
X124570D01*
X125156Y71518D01*
X160156Y56518D02*
Y90347D01*
X125156Y71518D02*
Y85933D01*
Y90347D01*
X124570Y90933D02*
X125156Y90347D01*
X160156D02*
X160741Y90933D01*
X135156Y85933D02*
X150156Y100933D01*
X165534D01*
X165741Y60933D02*
X170156D01*
X165156Y61518D02*
X165741Y60933D01*
X180352Y67277D02*
Y69008D01*
X170156D02*
X180352D01*
X170156Y89181D02*
Y89937D01*
X169159Y90933D02*
X170156Y89937D01*
X160741Y90933D02*
X169159D01*
X165534Y100933D02*
X168038Y98429D01*
X180156Y30696D02*
X185156Y35696D01*
X180352Y67277D02*
X185156Y62474D01*
Y35696D02*
Y62474D01*
X168038Y98429D02*
X190000D01*
X6000Y6000D02*
Y9999D01*
X7999Y11998D01*
X9999Y9999D01*
Y6000D01*
Y8999D01*
X6000D01*
X11998Y6000D02*
Y9999D01*
X13997Y11998D01*
X15997Y9999D01*
Y6000D01*
Y8999D01*
X11998D01*
X17996Y10998D02*
X18996Y11998D01*
X20995D01*
X21995Y10998D01*
Y9999D01*
X20995Y8999D01*
X21995Y7999D01*
Y7000D01*
X20995Y6000D01*
X18996D01*
X17996Y7000D01*
Y7999D01*
X18996Y8999D01*
X17996Y9999D01*
Y10998D01*
X18996Y8999D02*
X20995D01*
D18*
X80000Y108650D02*
D03*
X70000D02*
D03*
Y101350D02*
D03*
X80000D02*
D03*
D20*
X175156Y89181D02*
D03*
X180156Y102685D02*
D03*
X120156Y85933D02*
D03*
X125156Y99437D02*
D03*
X170156Y15933D02*
D03*
X115156Y10933D02*
D03*
X125156D02*
D03*
Y24437D02*
D03*
X120156D02*
D03*
X115156D02*
D03*
X180156Y29437D02*
D03*
X175156D02*
D03*
X170156D02*
D03*
X180156Y15933D02*
D03*
X115156Y85933D02*
D03*
X125156D02*
D03*
X115156Y99437D02*
D03*
X170156Y89181D02*
D03*
X180156D02*
D03*
X170156Y102685D02*
D03*
D22*
X141578Y6175D02*
D03*
X152778Y12175D02*
D03*
Y10175D02*
D03*
Y8175D02*
D03*
Y6175D02*
D03*
X141578Y8175D02*
D03*
Y10175D02*
D03*
Y12175D02*
D03*
D24*
X124844Y57971D02*
D03*
X125156Y37857D02*
D03*
X115156Y65933D02*
D03*
Y44970D02*
D03*
X170156Y50933D02*
D03*
X180352Y42857D02*
D03*
Y60933D02*
D03*
X170156Y69008D02*
D03*
D25*
X124844Y66046D02*
D03*
X125156Y45933D02*
D03*
X115156Y57857D02*
D03*
Y36895D02*
D03*
X170156Y42857D02*
D03*
X180352Y50933D02*
D03*
Y69008D02*
D03*
X170156Y60933D02*
D03*
D28*
X30000Y130012D02*
D03*
X45000Y99988D02*
D03*
D30*
X215000Y115000D02*
D03*
Y45000D02*
D03*
X340000Y71000D02*
D03*
X325000D02*
D03*
X340000Y99000D02*
D03*
X325000D02*
D03*
D31*
X290000Y18160D02*
D03*
Y61467D02*
D03*
X275000Y60000D02*
D03*
X370000Y71653D02*
D03*
X275000Y98347D02*
D03*
X370000D02*
D03*
X45000Y130012D02*
D03*
X290000Y98533D02*
D03*
Y141840D02*
D03*
X355000Y98347D02*
D03*
Y141654D02*
D03*
X30000Y99988D02*
D03*
X370000Y28346D02*
D03*
Y141654D02*
D03*
X275000D02*
D03*
X355000Y28346D02*
D03*
Y71653D02*
D03*
X275000Y16693D02*
D03*
D33*
X200000Y65000D02*
D03*
Y95000D02*
D03*
D34*
Y22874D02*
D03*
Y137126D02*
D03*
D35*
X215000Y65000D02*
D03*
X340000Y25000D02*
D03*
X325000D02*
D03*
X340000Y145000D02*
D03*
X325000D02*
D03*
X215000Y95000D02*
D03*
D36*
X40315Y20000D02*
D03*
D37*
X60000D02*
D03*
D42*
X297500Y68878D02*
D03*
X302500D02*
D03*
X307500D02*
D03*
X312500D02*
D03*
X297500Y91122D02*
D03*
X302500D02*
D03*
X307500D02*
D03*
X312500D02*
D03*
D43*
X100000Y115000D02*
D03*
Y109268D02*
D03*
D44*
X82866Y93156D02*
D03*
X77134D02*
D03*
D45*
X70512Y70906D02*
D03*
X9488Y59095D02*
D03*
D46*
X10000Y120000D02*
D03*
Y130000D02*
D03*
X394938Y10000D02*
D03*
X495000Y130000D02*
D03*
X404938Y10000D02*
D03*
X414938D02*
D03*
X10000Y110000D02*
D03*
X495000D02*
D03*
Y120000D02*
D03*
D47*
X410621Y40000D02*
D03*
Y125000D02*
D03*
X464843Y55000D02*
D03*
Y110000D02*
D03*
X245000Y134843D02*
D03*
Y25315D02*
D03*
D48*
X424938Y10000D02*
D03*
D49*
X10000Y100000D02*
D03*
X495000D02*
D03*
D50*
X390936Y40000D02*
D03*
X445157Y55000D02*
D03*
Y110000D02*
D03*
X390936Y125000D02*
D03*
D51*
X245000Y115157D02*
D03*
Y45000D02*
D03*
D52*
X315000Y60000D02*
D03*
X84569Y80000D02*
D03*
X115156Y75933D02*
D03*
X20000Y120000D02*
D03*
X135000Y110000D02*
D03*
X215000Y35000D02*
D03*
X430000Y30000D02*
D03*
X170000Y80000D02*
D03*
X275000D02*
D03*
X180156Y110933D02*
D03*
X215000Y125000D02*
D03*
X430000Y135000D02*
D03*
X480000Y140000D02*
D03*
X100000Y10000D02*
D03*
X164000Y11236D02*
D03*
X335000Y85000D02*
D03*
X159707Y19707D02*
D03*
X135000Y15000D02*
D03*
X132645Y6094D02*
D03*
X187897Y3613D02*
D03*
X150000Y80000D02*
D03*
X485000Y110000D02*
D03*
M02*
