G04*
G04 #@! TF.GenerationSoftware,Altium Limited,Altium Designer,26.1.1 (7)*
G04*
G04 Layer_Color=128*
%FSLAX25Y25*%
%MOIN*%
G70*
G04*
G04 #@! TF.SameCoordinates,567AFDD2-51B0-4D06-BB96-2A6C27C88ABC*
G04*
G04*
G04 #@! TF.FilePolarity,Positive*
G04*
G01*
G75*
%ADD54C,0.00200*%
D54*
X288425Y18160D02*
X291575D01*
X290000Y16585D02*
Y19734D01*
X288425Y61467D02*
X291575D01*
X290000Y59892D02*
Y63042D01*
X7894Y120000D02*
X12106D01*
X10000Y117894D02*
Y122106D01*
X7894Y130000D02*
X12106D01*
X10000Y127894D02*
Y132106D01*
X28622Y130012D02*
X31378D01*
X30000Y128634D02*
Y131390D01*
X273425Y60000D02*
X276575D01*
X275000Y58425D02*
Y61575D01*
X392832Y10000D02*
X397044D01*
X394938Y7894D02*
Y12106D01*
X368425Y71653D02*
X371575D01*
X370000Y70079D02*
Y73228D01*
X409046Y40000D02*
X412196D01*
X410621Y38425D02*
Y41575D01*
X273425Y98347D02*
X276575D01*
X275000Y96772D02*
Y99921D01*
X213300Y115000D02*
X216700D01*
X215000Y113300D02*
Y116700D01*
X368425Y98347D02*
X371575D01*
X370000Y96772D02*
Y99921D01*
X409046Y125000D02*
X412196D01*
X410621Y123425D02*
Y126575D01*
X492894Y130000D02*
X497106D01*
X495000Y127894D02*
Y132106D01*
X213300Y45000D02*
X216700D01*
X215000Y43300D02*
Y46700D01*
X43622Y130012D02*
X46378D01*
X45000Y128634D02*
Y131390D01*
X288425Y98533D02*
X291575D01*
X290000Y96959D02*
Y100108D01*
X288425Y141840D02*
X291575D01*
X290000Y140266D02*
Y143415D01*
X422832Y10000D02*
X427044D01*
X424938Y7894D02*
Y12106D01*
X43622Y99988D02*
X46378D01*
X45000Y98610D02*
Y101366D01*
X198900Y65000D02*
X201100D01*
X200000Y63900D02*
Y66100D01*
X198900Y22874D02*
X201100D01*
X200000Y21774D02*
Y23974D01*
X213300Y65000D02*
X216700D01*
X215000Y63300D02*
Y66700D01*
X38715Y20000D02*
X41915D01*
X40315Y18400D02*
Y21600D01*
X58400Y20000D02*
X61600D01*
X60000Y18400D02*
Y21600D01*
X402832Y10000D02*
X407044D01*
X404938Y7894D02*
Y12106D01*
X412832Y10000D02*
X417044D01*
X414938Y7894D02*
Y12106D01*
X353425Y98347D02*
X356575D01*
X355000Y96772D02*
Y99921D01*
X353425Y141654D02*
X356575D01*
X355000Y140079D02*
Y143228D01*
X28622Y99988D02*
X31378D01*
X30000Y98610D02*
Y101366D01*
X7894Y110000D02*
X12106D01*
X10000Y107894D02*
Y112106D01*
X7894Y100000D02*
X12106D01*
X10000Y97894D02*
Y102106D01*
X492894Y100000D02*
X497106D01*
X495000Y97894D02*
Y102106D01*
X492894Y110000D02*
X497106D01*
X495000Y107894D02*
Y112106D01*
X492894Y120000D02*
X497106D01*
X495000Y117894D02*
Y122106D01*
X389361Y40000D02*
X392511D01*
X390936Y38425D02*
Y41575D01*
X463268Y55000D02*
X466417D01*
X464843Y53425D02*
Y56575D01*
X443583Y55000D02*
X446732D01*
X445157Y53425D02*
Y56575D01*
X443583Y110000D02*
X446732D01*
X445157Y108425D02*
Y111575D01*
X463268Y110000D02*
X466417D01*
X464843Y108425D02*
Y111575D01*
X389361Y125000D02*
X392511D01*
X390936Y123425D02*
Y126575D01*
X338300Y71000D02*
X341700D01*
X340000Y69300D02*
Y72700D01*
X338300Y25000D02*
X341700D01*
X340000Y23300D02*
Y26700D01*
X323300Y25000D02*
X326700D01*
X325000Y23300D02*
Y26700D01*
X323300Y71000D02*
X326700D01*
X325000Y69300D02*
Y72700D01*
X368425Y28346D02*
X371575D01*
X370000Y26772D02*
Y29921D01*
X368425Y141654D02*
X371575D01*
X370000Y140079D02*
Y143228D01*
X338300Y145000D02*
X341700D01*
X340000Y143300D02*
Y146700D01*
X338300Y99000D02*
X341700D01*
X340000Y97300D02*
Y100700D01*
X323300Y99000D02*
X326700D01*
X325000Y97300D02*
Y100700D01*
X323300Y145000D02*
X326700D01*
X325000Y143300D02*
Y146700D01*
X273425Y141654D02*
X276575D01*
X275000Y140079D02*
Y143228D01*
X213300Y95000D02*
X216700D01*
X215000Y93300D02*
Y96700D01*
X198900Y95000D02*
X201100D01*
X200000Y93900D02*
Y96100D01*
X198900Y137126D02*
X201100D01*
X200000Y136026D02*
Y138226D01*
X243425Y134843D02*
X246575D01*
X245000Y133268D02*
Y136417D01*
X243425Y115157D02*
X246575D01*
X245000Y113583D02*
Y116732D01*
X353425Y28346D02*
X356575D01*
X355000Y26772D02*
Y29921D01*
X353425Y71653D02*
X356575D01*
X355000Y70079D02*
Y73228D01*
X273425Y16693D02*
X276575D01*
X275000Y15118D02*
Y18268D01*
X243425Y45000D02*
X246575D01*
X245000Y43425D02*
Y46575D01*
X243425Y25315D02*
X246575D01*
X245000Y23740D02*
Y26890D01*
X313600Y60000D02*
X316400D01*
X315000Y58600D02*
Y61400D01*
X83169Y80000D02*
X85969D01*
X84569Y78600D02*
Y81400D01*
X113756Y75933D02*
X116556D01*
X115156Y74533D02*
Y77333D01*
X18600Y120000D02*
X21400D01*
X20000Y118600D02*
Y121400D01*
X133600Y110000D02*
X136400D01*
X135000Y108600D02*
Y111400D01*
X213600Y35000D02*
X216400D01*
X215000Y33600D02*
Y36400D01*
X428600Y30000D02*
X431400D01*
X430000Y28600D02*
Y31400D01*
X168600Y80000D02*
X171400D01*
X170000Y78600D02*
Y81400D01*
X273600Y80000D02*
X276400D01*
X275000Y78600D02*
Y81400D01*
X178756Y110933D02*
X181556D01*
X180156Y109533D02*
Y112333D01*
X213600Y125000D02*
X216400D01*
X215000Y123600D02*
Y126400D01*
X428600Y135000D02*
X431400D01*
X430000Y133600D02*
Y136400D01*
X478600Y140000D02*
X481400D01*
X480000Y138600D02*
Y141400D01*
X98600Y10000D02*
X101400D01*
X100000Y8600D02*
Y11400D01*
X162600Y11236D02*
X165400D01*
X164000Y9836D02*
Y12636D01*
X333600Y85000D02*
X336400D01*
X335000Y83600D02*
Y86400D01*
X158307Y19707D02*
X161107D01*
X159707Y18307D02*
Y21107D01*
X133600Y15000D02*
X136400D01*
X135000Y13600D02*
Y16400D01*
X131245Y6094D02*
X134045D01*
X132645Y4694D02*
Y7494D01*
X186497Y3613D02*
X189297D01*
X187897Y2213D02*
Y5013D01*
X148600Y80000D02*
X151400D01*
X150000Y78600D02*
Y81400D01*
X483600Y110000D02*
X486400D01*
X485000Y108600D02*
Y111400D01*
M02*
