G04*
G04 #@! TF.GenerationSoftware,Altium Limited,Altium Designer,26.1.1 (7)*
G04*
G04 Layer_Color=65535*
%FSLAX25Y25*%
%MOIN*%
G70*
G04*
G04 #@! TF.SameCoordinates,567AFDD2-51B0-4D06-BB96-2A6C27C88ABC*
G04*
G04*
G04 #@! TF.FilePolarity,Positive*
G04*
G01*
G75*
%ADD10C,0.02362*%
%ADD11C,0.00984*%
%ADD12C,0.00600*%
%ADD13C,0.00787*%
%ADD14C,0.00500*%
%ADD15C,0.01000*%
%ADD16C,0.00300*%
D10*
X312087Y82362D02*
G03*
X312087Y82362I-1181J0D01*
G01*
D11*
X316437Y91122D02*
G03*
X316437Y91122I-492J0D01*
G01*
X115628Y29712D02*
G03*
X115628Y29712I-492J0D01*
G01*
X170628Y34712D02*
G03*
X170628Y34712I-492J0D01*
G01*
X122431Y56192D02*
G03*
X122431Y56192I-492J0D01*
G01*
X122743Y36079D02*
G03*
X122743Y36079I-492J0D01*
G01*
X118553Y67711D02*
G03*
X118553Y67711I-492J0D01*
G01*
Y46749D02*
G03*
X118553Y46749I-492J0D01*
G01*
X125667Y80657D02*
G03*
X125667Y80657I-492J0D01*
G01*
X173553Y52711D02*
G03*
X173553Y52711I-492J0D01*
G01*
X177939Y41079D02*
G03*
X177939Y41079I-492J0D01*
G01*
X180667Y83905D02*
G03*
X180667Y83905I-492J0D01*
G01*
X177939Y59154D02*
G03*
X177939Y59154I-492J0D01*
G01*
X173553Y70786D02*
G03*
X173553Y70786I-492J0D01*
G01*
D12*
X31357Y20000D02*
G03*
X31357Y20000I-300J0D01*
G01*
X144389Y13825D02*
X149966D01*
X144389Y4525D02*
X149966D01*
X194750Y31037D02*
Y56837D01*
Y31037D02*
X205250D01*
Y56837D01*
X194750D02*
X205250D01*
X215000Y36300D02*
Y40990D01*
X212500Y38800D02*
X217500D01*
X221750Y44500D02*
Y65500D01*
X218979D02*
X221750D01*
X208250Y44500D02*
Y65500D01*
Y44500D02*
X210990D01*
X219010D02*
X221750D01*
X208250Y65500D02*
X211021D01*
X73350Y104661D02*
Y105339D01*
X66650Y104661D02*
Y105339D01*
X34058Y30250D02*
X66258D01*
X34058Y9750D02*
X66258D01*
Y30250D01*
X34058Y9750D02*
Y30250D01*
X76650Y104661D02*
Y105339D01*
X83350Y104661D02*
Y105339D01*
X334350Y34100D02*
Y61900D01*
Y34100D02*
X345650D01*
Y61900D01*
X334350D02*
X345650D01*
X319350D02*
X330650D01*
Y34100D02*
Y61900D01*
X319350Y34100D02*
X330650D01*
X319350D02*
Y61900D01*
X334350Y108100D02*
X345650D01*
X334350D02*
Y135900D01*
X345650D01*
Y108100D02*
Y135900D01*
X330650Y108100D02*
Y135900D01*
X319350D02*
X330650D01*
X319350Y108100D02*
Y135900D01*
Y108100D02*
X330650D01*
X218979Y94500D02*
X221750D01*
X208250Y115500D02*
X210990D01*
X219010D02*
X221750D01*
Y94500D02*
Y115500D01*
X208250Y94500D02*
X211021D01*
X208250D02*
Y115500D01*
X212500Y121200D02*
X217500D01*
X215000Y119010D02*
Y123700D01*
X205250Y103163D02*
Y128963D01*
X194750D02*
X205250D01*
X194750Y103163D02*
Y128963D01*
Y103163D02*
X205250D01*
D13*
X433796Y10197D02*
G03*
X433796Y10197I-394J0D01*
G01*
X495590Y91535D02*
G03*
X495590Y91535I-394J0D01*
G01*
X10591D02*
G03*
X10591Y91535I-394J0D01*
G01*
X377550Y40000D02*
G03*
X377550Y40000I-394J0D01*
G01*
X431772Y55000D02*
G03*
X431772Y55000I-394J0D01*
G01*
Y110000D02*
G03*
X431772Y110000I-394J0D01*
G01*
X377550Y125000D02*
G03*
X377550Y125000I-394J0D01*
G01*
X245394Y101378D02*
G03*
X245394Y101378I-394J0D01*
G01*
Y58780D02*
G03*
X245394Y58780I-394J0D01*
G01*
X295158Y73701D02*
Y86299D01*
X314843Y73701D02*
Y86299D01*
X295158Y73701D02*
X314843D01*
X295158Y86299D02*
X314843D01*
X3189Y77992D02*
Y83307D01*
X62441D01*
X17559Y46693D02*
X76811D01*
Y52008D01*
X111908Y9437D02*
X112183D01*
X118128D02*
X122183D01*
X128128D02*
X128404D01*
Y25933D01*
X111908D02*
X112183D01*
X128128D02*
X128404D01*
X111908Y9437D02*
Y25933D01*
X41240Y106024D02*
Y123976D01*
X48760D01*
Y106024D02*
Y123976D01*
X41240Y106024D02*
X48760D01*
X41634Y109095D02*
X48366D01*
X45000Y104449D02*
Y106024D01*
Y123976D02*
Y125551D01*
X166908Y14437D02*
X167183D01*
X173128D02*
X177183D01*
X183128D02*
X183404D01*
Y30933D01*
X166908D02*
X167183D01*
X183128D02*
X183404D01*
X166908Y14437D02*
Y30933D01*
X122285Y65355D02*
X122541D01*
X122285Y58662D02*
Y65355D01*
Y58662D02*
X122541D01*
X127147Y65355D02*
X127403D01*
Y58662D02*
Y65355D01*
X127147Y58662D02*
X127403D01*
X122597Y45241D02*
X122853D01*
X122597Y38548D02*
Y45241D01*
Y38548D02*
X122853D01*
X127459Y45241D02*
X127715D01*
Y38548D02*
Y45241D01*
X127459Y38548D02*
X127715D01*
X117459Y58548D02*
X117715D01*
Y65241D01*
X117459D02*
X117715D01*
X112597Y58548D02*
X112853D01*
X112597D02*
Y65241D01*
X112853D01*
X117459Y37586D02*
X117715D01*
Y44279D01*
X117459D02*
X117715D01*
X112597Y37586D02*
X112853D01*
X112597D02*
Y44279D01*
X112853D01*
X128128Y100933D02*
X128404D01*
X118128D02*
X122183D01*
X111908D02*
X112183D01*
X111908Y84437D02*
Y100933D01*
X128128Y84437D02*
X128404D01*
X111908D02*
X112183D01*
X128404D02*
Y100933D01*
X172459Y43549D02*
X172715D01*
Y50241D01*
X172459D02*
X172715D01*
X167597Y43549D02*
X167852D01*
X167597D02*
Y50241D01*
X167852D01*
X177793Y50241D02*
X178049D01*
X177793Y43549D02*
Y50241D01*
Y43549D02*
X178049D01*
X182656Y50241D02*
X182912D01*
Y43549D02*
Y50241D01*
X182656Y43549D02*
X182912D01*
X183128Y104181D02*
X183404D01*
X173128D02*
X177183D01*
X166908D02*
X167183D01*
X166908Y87685D02*
Y104181D01*
X183128Y87685D02*
X183404D01*
X166908D02*
X167183D01*
X183404D02*
Y104181D01*
X177793Y68317D02*
X178049D01*
X177793Y61624D02*
Y68317D01*
Y61624D02*
X178049D01*
X182656Y68317D02*
X182912D01*
Y61624D02*
Y68317D01*
X182656Y61624D02*
X182912D01*
X167597Y68317D02*
X167852D01*
X167597Y61624D02*
Y68317D01*
Y61624D02*
X167852D01*
X172459Y68317D02*
X172715D01*
Y61624D02*
Y68317D01*
X172459Y61624D02*
X172715D01*
X30000Y104449D02*
Y106024D01*
Y123976D02*
Y125551D01*
X26634Y120905D02*
X33366D01*
X26240Y123976D02*
X33760D01*
X26240Y106024D02*
Y123976D01*
Y106024D02*
X33760D01*
Y123976D01*
D14*
X421448Y40000D02*
G03*
X421448Y40000I-20669J0D01*
G01*
X475669Y55000D02*
G03*
X475669Y55000I-20669J0D01*
G01*
Y110000D02*
G03*
X475669Y110000I-20669J0D01*
G01*
X421448Y125000D02*
G03*
X421448Y125000I-20669J0D01*
G01*
X265669D02*
G03*
X265669Y125000I-20669J0D01*
G01*
Y35157D02*
G03*
X265669Y35157I-20669J0D01*
G01*
X290000Y53199D02*
X295118D01*
X284882D02*
X290000D01*
X284882Y26427D02*
Y53199D01*
Y26427D02*
X290000D01*
X295118D01*
Y53199D01*
X290000D02*
Y57845D01*
Y21782D02*
Y26427D01*
X284882Y106801D02*
X290000D01*
X295118D01*
Y133573D01*
X290000D02*
X295118D01*
X284882D02*
X290000D01*
X284882Y106801D02*
Y133573D01*
X290000Y102155D02*
Y106801D01*
Y133573D02*
Y138218D01*
X388954Y5000D02*
X430922D01*
X388954D02*
Y15000D01*
X430922D01*
Y5000D02*
Y15000D01*
X355000Y133386D02*
X360118D01*
X349882D02*
X355000D01*
X349882Y106614D02*
Y133386D01*
Y106614D02*
X355000D01*
X360118D01*
Y133386D01*
X355000D02*
Y138031D01*
Y101969D02*
Y106614D01*
X490000Y94016D02*
X500000D01*
Y135984D01*
X490000D02*
X500000D01*
X490000Y94016D02*
Y135984D01*
X5000Y94016D02*
X15000D01*
Y135984D01*
X5000D02*
X15000D01*
X5000Y94016D02*
Y135984D01*
X370000Y63386D02*
Y68032D01*
Y31969D02*
Y36614D01*
X364882D02*
Y63386D01*
X370000D01*
X375118D01*
Y36614D02*
Y63386D01*
X370000Y36614D02*
X375118D01*
X364882D02*
X370000D01*
Y133386D02*
Y138031D01*
Y101969D02*
Y106614D01*
X364882D02*
Y133386D01*
X370000D01*
X375118D01*
Y106614D02*
Y133386D01*
X370000Y106614D02*
X375118D01*
X364882D02*
X370000D01*
X275000Y101969D02*
Y106614D01*
Y133386D02*
Y138031D01*
X280118Y106614D02*
Y133386D01*
X275000Y106614D02*
X280118D01*
X269882D02*
X275000D01*
X269882D02*
Y133386D01*
X275000D01*
X280118D01*
X355000Y31969D02*
Y36614D01*
Y63386D02*
Y68032D01*
X360118Y36614D02*
Y63386D01*
X355000Y36614D02*
X360118D01*
X349882D02*
X355000D01*
X349882D02*
Y63386D01*
X355000D01*
X360118D01*
X275000Y51732D02*
Y56378D01*
Y20315D02*
Y24961D01*
X269882D02*
Y51732D01*
X275000D01*
X280118D01*
Y24961D02*
Y51732D01*
X275000Y24961D02*
X280118D01*
X269882D02*
X275000D01*
D15*
X0Y0D02*
X505000D01*
X0Y150000D02*
X505000D01*
Y0D02*
Y150000D01*
X0Y0D02*
Y150000D01*
X224999Y75998D02*
X223999Y76998D01*
X222000D01*
X221000Y75998D01*
Y74999D01*
X222000Y73999D01*
X223999D01*
X224999Y72999D01*
Y72000D01*
X223999Y71000D01*
X222000D01*
X221000Y72000D01*
X226998Y76998D02*
Y72000D01*
X227998Y71000D01*
X229997D01*
X230997Y72000D01*
Y76998D01*
X232996D02*
Y71000D01*
X235995D01*
X236995Y72000D01*
Y72999D01*
X235995Y73999D01*
X232996D01*
X235995D01*
X236995Y74999D01*
Y75998D01*
X235995Y76998D01*
X232996D01*
X242993Y75998D02*
X241993Y76998D01*
X239994D01*
X238994Y75998D01*
Y74999D01*
X239994Y73999D01*
X241993D01*
X242993Y72999D01*
Y72000D01*
X241993Y71000D01*
X239994D01*
X238994Y72000D01*
X244992Y76998D02*
Y75998D01*
X246992Y73999D01*
X248991Y75998D01*
Y76998D01*
X246992Y73999D02*
Y71000D01*
X254989Y75998D02*
X253989Y76998D01*
X251990D01*
X250990Y75998D01*
Y74999D01*
X251990Y73999D01*
X253989D01*
X254989Y72999D01*
Y72000D01*
X253989Y71000D01*
X251990D01*
X250990Y72000D01*
X256988Y76998D02*
X260987D01*
X258988D01*
Y71000D01*
X266985Y76998D02*
X262986D01*
Y71000D01*
X266985D01*
X262986Y73999D02*
X264986D01*
X268985Y71000D02*
Y76998D01*
X270984Y74999D01*
X272983Y76998D01*
Y71000D01*
X280981D02*
Y74999D01*
X282980Y76998D01*
X284979Y74999D01*
Y71000D01*
Y73999D01*
X280981D01*
X294100Y105398D02*
Y100400D01*
X295100Y99400D01*
X297099D01*
X298099Y100400D01*
Y105398D01*
X300098Y99400D02*
X302097D01*
X301098D01*
Y105398D01*
X300098Y104398D01*
X143199Y25198D02*
X142199Y26198D01*
X140200D01*
X139200Y25198D01*
Y24199D01*
X140200Y23199D01*
X142199D01*
X143199Y22199D01*
Y21200D01*
X142199Y20200D01*
X140200D01*
X139200Y21200D01*
X145198Y20200D02*
X147197D01*
X146198D01*
Y26198D01*
X145198Y25198D01*
X97900Y127198D02*
Y121200D01*
X101899D01*
X107897Y127198D02*
X103898D01*
Y124199D01*
X105897D01*
X103898D01*
Y121200D01*
X109896Y126198D02*
X110896Y127198D01*
X112895D01*
X113895Y126198D01*
Y125199D01*
X112895Y124199D01*
X111896D01*
X112895D01*
X113895Y123199D01*
Y122200D01*
X112895Y121200D01*
X110896D01*
X109896Y122200D01*
X58002Y97999D02*
Y92001D01*
X62001D01*
X67999Y97999D02*
X64000D01*
Y95000D01*
X66000D01*
X64000D01*
Y92001D01*
X69998D02*
X71998D01*
X70998D01*
Y97999D01*
X69998Y96999D01*
X312003Y77001D02*
Y82999D01*
X315002D01*
X316001Y81999D01*
Y80000D01*
X315002Y79000D01*
X312003D01*
X314002D02*
X316001Y77001D01*
X321999Y82999D02*
X318001D01*
Y80000D01*
X320000D01*
X318001D01*
Y77001D01*
X327997D02*
X323999D01*
X327997Y81000D01*
Y81999D01*
X326998Y82999D01*
X324998D01*
X323999Y81999D01*
X318002Y87001D02*
Y92999D01*
X321001D01*
X322001Y91999D01*
Y90000D01*
X321001Y89000D01*
X318002D01*
X320002D02*
X322001Y87001D01*
X327999Y92999D02*
X324000D01*
Y90000D01*
X326000D01*
X324000D01*
Y87001D01*
X329998D02*
X331998D01*
X330998D01*
Y92999D01*
X329998Y91999D01*
X377502Y77001D02*
Y82999D01*
X380502D01*
X381501Y81999D01*
Y80000D01*
X380502Y79000D01*
X377502D01*
X379502D02*
X381501Y77001D01*
X383501D02*
X385500D01*
X384500D01*
Y82999D01*
X383501Y81999D01*
X388499D02*
X389498Y82999D01*
X391498D01*
X392498Y81999D01*
Y81000D01*
X391498Y80000D01*
X390498D01*
X391498D01*
X392498Y79000D01*
Y78001D01*
X391498Y77001D01*
X389498D01*
X388499Y78001D01*
X349800Y78200D02*
Y84198D01*
X352799D01*
X353799Y83198D01*
Y81199D01*
X352799Y80199D01*
X349800D01*
X351799D02*
X353799Y78200D01*
X355798D02*
X357797D01*
X356798D01*
Y84198D01*
X355798Y83198D01*
X364795Y78200D02*
X360796D01*
X364795Y82199D01*
Y83198D01*
X363795Y84198D01*
X361796D01*
X360796Y83198D01*
X333502Y77001D02*
Y82999D01*
X336501D01*
X337501Y81999D01*
Y80000D01*
X336501Y79000D01*
X333502D01*
X335502D02*
X337501Y77001D01*
X339500D02*
X341499D01*
X340500D01*
Y82999D01*
X339500Y81999D01*
X344498Y77001D02*
X346498D01*
X345498D01*
Y82999D01*
X344498Y81999D01*
X284800Y69013D02*
Y75011D01*
X287799D01*
X288799Y74012D01*
Y72012D01*
X287799Y71013D01*
X284800D01*
X286799D02*
X288799Y69013D01*
X290798D02*
X292797D01*
X291798D01*
Y75011D01*
X290798Y74012D01*
X295796D02*
X296796Y75011D01*
X298796D01*
X299795Y74012D01*
Y70013D01*
X298796Y69013D01*
X296796D01*
X295796Y70013D01*
Y74012D01*
X269800Y67600D02*
Y73598D01*
X272799D01*
X273799Y72598D01*
Y70599D01*
X272799Y69599D01*
X269800D01*
X271799D02*
X273799Y67600D01*
X275798Y68600D02*
X276798Y67600D01*
X278797D01*
X279797Y68600D01*
Y72598D01*
X278797Y73598D01*
X276798D01*
X275798Y72598D01*
Y71599D01*
X276798Y70599D01*
X279797D01*
X195000Y71400D02*
Y77398D01*
X197999D01*
X198999Y76398D01*
Y74399D01*
X197999Y73399D01*
X195000D01*
X196999D02*
X198999Y71400D01*
X200998Y76398D02*
X201998Y77398D01*
X203997D01*
X204997Y76398D01*
Y75399D01*
X203997Y74399D01*
X204997Y73399D01*
Y72400D01*
X203997Y71400D01*
X201998D01*
X200998Y72400D01*
Y73399D01*
X201998Y74399D01*
X200998Y75399D01*
Y76398D01*
X201998Y74399D02*
X203997D01*
X380002Y97001D02*
Y102999D01*
X383001D01*
X384000Y101999D01*
Y100000D01*
X383001Y99000D01*
X380002D01*
X382001D02*
X384000Y97001D01*
X386000Y102999D02*
X389998D01*
Y101999D01*
X386000Y98001D01*
Y97001D01*
X350002Y87001D02*
Y92999D01*
X353001D01*
X354000Y91999D01*
Y90000D01*
X353001Y89000D01*
X350002D01*
X352001D02*
X354000Y87001D01*
X359998Y92999D02*
X357999Y91999D01*
X356000Y90000D01*
Y88001D01*
X356999Y87001D01*
X358999D01*
X359998Y88001D01*
Y89000D01*
X358999Y90000D01*
X356000D01*
X335002Y87001D02*
Y92999D01*
X338001D01*
X339000Y91999D01*
Y90000D01*
X338001Y89000D01*
X335002D01*
X337001D02*
X339000Y87001D01*
X344998Y92999D02*
X341000D01*
Y90000D01*
X342999Y91000D01*
X343999D01*
X344998Y90000D01*
Y88001D01*
X343999Y87001D01*
X341999D01*
X341000Y88001D01*
X300002Y142188D02*
Y148186D01*
X303001D01*
X304000Y147186D01*
Y145187D01*
X303001Y144187D01*
X300002D01*
X302001D02*
X304000Y142188D01*
X308999D02*
Y148186D01*
X306000Y145187D01*
X309998D01*
X255002Y97001D02*
Y102999D01*
X258001D01*
X259000Y101999D01*
Y100000D01*
X258001Y99000D01*
X255002D01*
X257001D02*
X259000Y97001D01*
X261000Y101999D02*
X261999Y102999D01*
X263999D01*
X264998Y101999D01*
Y101000D01*
X263999Y100000D01*
X262999D01*
X263999D01*
X264998Y99000D01*
Y98001D01*
X263999Y97001D01*
X261999D01*
X261000Y98001D01*
X180002Y132001D02*
Y137999D01*
X183001D01*
X184000Y136999D01*
Y135000D01*
X183001Y134000D01*
X180002D01*
X182001D02*
X184000Y132001D01*
X189998D02*
X186000D01*
X189998Y136000D01*
Y136999D01*
X188999Y137999D01*
X186999D01*
X186000Y136999D01*
X27003Y92999D02*
Y87001D01*
X31001D01*
X36999Y92999D02*
X33001D01*
Y90000D01*
X35000D01*
X33001D01*
Y87001D01*
X42997D02*
X38999D01*
X42997Y91000D01*
Y91999D01*
X41998Y92999D01*
X39998D01*
X38999Y91999D01*
X150157Y28932D02*
Y22934D01*
X154156D01*
X159154D02*
Y28932D01*
X156155Y25933D01*
X160154D01*
X185157Y93932D02*
Y87934D01*
X189156D01*
X191155Y92932D02*
X192155Y93932D01*
X194154D01*
X195154Y92932D01*
Y91932D01*
X194154Y90933D01*
X193155D01*
X194154D01*
X195154Y89933D01*
Y88933D01*
X194154Y87934D01*
X192155D01*
X191155Y88933D01*
X95002Y22999D02*
Y17001D01*
X99000D01*
X104998D02*
X101000D01*
X104998Y21000D01*
Y21999D01*
X103999Y22999D01*
X101999D01*
X101000Y21999D01*
X131157Y98932D02*
Y92934D01*
X135156D01*
X137155D02*
X139154D01*
X138155D01*
Y98932D01*
X137155Y97932D01*
X41500Y142198D02*
Y136200D01*
X44499D01*
X45499Y137200D01*
Y141198D01*
X44499Y142198D01*
X41500D01*
X47498D02*
Y136200D01*
X51497D01*
X57495D02*
X53496D01*
X57495Y140199D01*
Y141198D01*
X56495Y142198D01*
X54496D01*
X53496Y141198D01*
X26500Y142198D02*
Y136200D01*
X29499D01*
X30499Y137200D01*
Y141198D01*
X29499Y142198D01*
X26500D01*
X32498D02*
Y136200D01*
X36497D01*
X38496D02*
X40495D01*
X39496D01*
Y142198D01*
X38496Y141198D01*
X185157Y48932D02*
Y42934D01*
X188156D01*
X189156Y43933D01*
Y47932D01*
X188156Y48932D01*
X185157D01*
X191155Y47932D02*
X192155Y48932D01*
X194154D01*
X195154Y47932D01*
Y46932D01*
X194154Y45933D01*
X195154Y44933D01*
Y43933D01*
X194154Y42934D01*
X192155D01*
X191155Y43933D01*
Y44933D01*
X192155Y45933D01*
X191155Y46932D01*
Y47932D01*
X192155Y45933D02*
X194154D01*
X155157Y48932D02*
Y42934D01*
X158156D01*
X159156Y43933D01*
Y47932D01*
X158156Y48932D01*
X155157D01*
X161155D02*
X165154D01*
Y47932D01*
X161155Y43933D01*
Y42934D01*
X190157Y68932D02*
Y62934D01*
X193156D01*
X194156Y63933D01*
Y67932D01*
X193156Y68932D01*
X190157D01*
X200154D02*
X198155Y67932D01*
X196155Y65933D01*
Y63933D01*
X197155Y62934D01*
X199154D01*
X200154Y63933D01*
Y64933D01*
X199154Y65933D01*
X196155D01*
X150002Y72999D02*
Y67001D01*
X153001D01*
X154000Y68001D01*
Y71999D01*
X153001Y72999D01*
X150002D01*
X159998D02*
X156000D01*
Y70000D01*
X157999Y71000D01*
X158999D01*
X159998Y70000D01*
Y68001D01*
X158999Y67001D01*
X156999D01*
X156000Y68001D01*
X135157Y43932D02*
Y37934D01*
X138156D01*
X139156Y38933D01*
Y42932D01*
X138156Y43932D01*
X135157D01*
X144154Y37934D02*
Y43932D01*
X141155Y40933D01*
X145154D01*
X100157Y43932D02*
Y37934D01*
X103156D01*
X104156Y38933D01*
Y42932D01*
X103156Y43932D01*
X100157D01*
X106155Y42932D02*
X107155Y43932D01*
X109154D01*
X110154Y42932D01*
Y41932D01*
X109154Y40933D01*
X108155D01*
X109154D01*
X110154Y39933D01*
Y38933D01*
X109154Y37934D01*
X107155D01*
X106155Y38933D01*
X134846Y64045D02*
Y58047D01*
X137845D01*
X138845Y59047D01*
Y63045D01*
X137845Y64045D01*
X134846D01*
X144843Y58047D02*
X140844D01*
X144843Y62046D01*
Y63045D01*
X143843Y64045D01*
X141844D01*
X140844Y63045D01*
X101157Y63932D02*
Y57934D01*
X104156D01*
X105156Y58933D01*
Y62932D01*
X104156Y63932D01*
X101157D01*
X107155Y57934D02*
X109154D01*
X108155D01*
Y63932D01*
X107155Y62932D01*
X81999Y128999D02*
X82999Y129998D01*
Y131998D01*
X81999Y132997D01*
X78001D01*
X77001Y131998D01*
Y129998D01*
X78001Y128999D01*
X82999Y123001D02*
Y126999D01*
X80000D01*
Y125000D01*
Y126999D01*
X77001D01*
X81999Y121001D02*
X82999Y120002D01*
Y118002D01*
X81999Y117003D01*
X81000D01*
X80000Y118002D01*
Y119002D01*
Y118002D01*
X79000Y117003D01*
X78001D01*
X77001Y118002D01*
Y120002D01*
X78001Y121001D01*
X71999Y128999D02*
X72999Y129998D01*
Y131998D01*
X71999Y132997D01*
X68001D01*
X67001Y131998D01*
Y129998D01*
X68001Y128999D01*
X72999Y123001D02*
Y126999D01*
X70000D01*
Y125000D01*
Y126999D01*
X67001D01*
Y117003D02*
Y121001D01*
X71000Y117003D01*
X71999D01*
X72999Y118002D01*
Y120002D01*
X71999Y121001D01*
X26999Y22999D02*
X27999Y23999D01*
Y25998D01*
X26999Y26998D01*
X23001D01*
X22001Y25998D01*
Y23999D01*
X23001Y22999D01*
X27999Y17001D02*
Y21000D01*
X25000D01*
Y19000D01*
Y21000D01*
X22001D01*
Y15002D02*
Y13002D01*
Y14002D01*
X27999D01*
X26999Y15002D01*
X212399Y76998D02*
X211399Y77998D01*
X209400D01*
X208400Y76998D01*
Y73000D01*
X209400Y72000D01*
X211399D01*
X212399Y73000D01*
X214398Y76998D02*
X215398Y77998D01*
X217397D01*
X218397Y76998D01*
Y75999D01*
X217397Y74999D01*
X218397Y73999D01*
Y73000D01*
X217397Y72000D01*
X215398D01*
X214398Y73000D01*
Y73999D01*
X215398Y74999D01*
X214398Y75999D01*
Y76998D01*
X215398Y74999D02*
X217397D01*
X228199Y67598D02*
X227199Y68598D01*
X225200D01*
X224200Y67598D01*
Y63600D01*
X225200Y62600D01*
X227199D01*
X228199Y63600D01*
X230198Y68598D02*
X234197D01*
Y67598D01*
X230198Y63600D01*
Y62600D01*
X454000Y81999D02*
X453001Y82999D01*
X451001D01*
X450002Y81999D01*
Y78001D01*
X451001Y77001D01*
X453001D01*
X454000Y78001D01*
X459998Y82999D02*
X457999Y81999D01*
X456000Y80000D01*
Y78001D01*
X456999Y77001D01*
X458999D01*
X459998Y78001D01*
Y79000D01*
X458999Y80000D01*
X456000D01*
X399000Y66999D02*
X398001Y67999D01*
X396001D01*
X395002Y66999D01*
Y63001D01*
X396001Y62001D01*
X398001D01*
X399000Y63001D01*
X404998Y67999D02*
X401000D01*
Y65000D01*
X402999Y66000D01*
X403999D01*
X404998Y65000D01*
Y63001D01*
X403999Y62001D01*
X401999D01*
X401000Y63001D01*
X214000Y86999D02*
X213001Y87999D01*
X211001D01*
X210002Y86999D01*
Y83001D01*
X211001Y82001D01*
X213001D01*
X214000Y83001D01*
X218999Y82001D02*
Y87999D01*
X216000Y85000D01*
X219998D01*
X219000Y141999D02*
X218001Y142999D01*
X216001D01*
X215002Y141999D01*
Y138001D01*
X216001Y137001D01*
X218001D01*
X219000Y138001D01*
X221000Y141999D02*
X221999Y142999D01*
X223999D01*
X224998Y141999D01*
Y141000D01*
X223999Y140000D01*
X222999D01*
X223999D01*
X224998Y139000D01*
Y138001D01*
X223999Y137001D01*
X221999D01*
X221000Y138001D01*
X454000Y136999D02*
X453001Y137999D01*
X451001D01*
X450002Y136999D01*
Y133001D01*
X451001Y132001D01*
X453001D01*
X454000Y133001D01*
X459998Y132001D02*
X456000D01*
X459998Y136000D01*
Y136999D01*
X458999Y137999D01*
X456999D01*
X456000Y136999D01*
X410000Y101999D02*
X409000Y102999D01*
X407001D01*
X406001Y101999D01*
Y98001D01*
X407001Y97001D01*
X409000D01*
X410000Y98001D01*
X411999Y97001D02*
X413999D01*
X412999D01*
Y102999D01*
X411999Y101999D01*
X8799Y145498D02*
X6799D01*
X7799D01*
Y140500D01*
X6799Y139500D01*
X5800D01*
X4800Y140500D01*
X10798Y139500D02*
X12797D01*
X11798D01*
Y145498D01*
X10798Y144498D01*
X393437Y25198D02*
X391437D01*
X392437D01*
Y20200D01*
X391437Y19200D01*
X390438D01*
X389438Y20200D01*
X399435Y19200D02*
X395436D01*
X399435Y23199D01*
Y24198D01*
X398435Y25198D01*
X396436D01*
X395436Y24198D01*
X493799Y145498D02*
X491799D01*
X492799D01*
Y140500D01*
X491799Y139500D01*
X490800D01*
X489800Y140500D01*
X495798Y144498D02*
X496798Y145498D01*
X498797D01*
X499797Y144498D01*
Y143499D01*
X498797Y142499D01*
X497797D01*
X498797D01*
X499797Y141499D01*
Y140500D01*
X498797Y139500D01*
X496798D01*
X495798Y140500D01*
D16*
X145000Y19165D02*
X148332Y15833D01*
X145000D02*
X148332Y19165D01*
X145000Y17499D02*
X148332D01*
X146666Y15833D02*
Y19165D01*
X153332D02*
X152499Y19998D01*
X150833D01*
X150000Y19165D01*
Y18332D01*
X150833Y17499D01*
X152499D01*
X153332Y16666D01*
Y15833D01*
X152499Y15000D01*
X150833D01*
X150000Y15833D01*
X154998Y15000D02*
X156665D01*
X155831D01*
Y19998D01*
X154998Y19165D01*
X197500Y57687D02*
X202498D01*
Y55188D01*
X201665Y54355D01*
X199999D01*
X199166Y55188D01*
Y57687D01*
Y56021D02*
X197500Y54355D01*
X201665Y52689D02*
X202498Y51856D01*
Y50189D01*
X201665Y49356D01*
X200832D01*
X199999Y50189D01*
X199166Y49356D01*
X198333D01*
X197500Y50189D01*
Y51856D01*
X198333Y52689D01*
X199166D01*
X199999Y51856D01*
X200832Y52689D01*
X201665D01*
X199999Y51856D02*
Y50189D01*
X213335Y44582D02*
X212502Y43749D01*
Y42083D01*
X213335Y41250D01*
X216667D01*
X217500Y42083D01*
Y43749D01*
X216667Y44582D01*
X213335Y46248D02*
X212502Y47081D01*
Y48748D01*
X213335Y49581D01*
X214168D01*
X215001Y48748D01*
X215834Y49581D01*
X216667D01*
X217500Y48748D01*
Y47081D01*
X216667Y46248D01*
X215834D01*
X215001Y47081D01*
X214168Y46248D01*
X213335D01*
X215001Y47081D02*
Y48748D01*
X71665Y115418D02*
X72498Y116251D01*
Y117917D01*
X71665Y118750D01*
X68333D01*
X67500Y117917D01*
Y116251D01*
X68333Y115418D01*
X72498Y110419D02*
Y113752D01*
X69999D01*
Y112085D01*
Y113752D01*
X67500D01*
Y105421D02*
Y108753D01*
X70832Y105421D01*
X71665D01*
X72498Y106254D01*
Y107920D01*
X71665Y108753D01*
X41407Y17500D02*
Y22498D01*
X43907D01*
X44740Y21665D01*
Y19999D01*
X43907Y19166D01*
X41407D01*
X43074D02*
X44740Y17500D01*
X49738Y22498D02*
X46406D01*
Y17500D01*
X49738D01*
X46406Y19999D02*
X48072D01*
X54737Y22498D02*
X51404D01*
Y19999D01*
X53070D01*
X51404D01*
Y17500D01*
X56403Y22498D02*
Y17500D01*
X58902D01*
X59735Y18333D01*
Y21665D01*
X58902Y22498D01*
X56403D01*
X64733D02*
X61401D01*
Y17500D01*
X64733D01*
X61401Y19999D02*
X63067D01*
X69732Y21665D02*
X68899Y22498D01*
X67232D01*
X66399Y21665D01*
Y20832D01*
X67232Y19999D01*
X68899D01*
X69732Y19166D01*
Y18333D01*
X68899Y17500D01*
X67232D01*
X66399Y18333D01*
X42658Y17500D02*
Y22498D01*
X45157D01*
X45990Y21665D01*
Y19999D01*
X45157Y19166D01*
X42658D01*
X44324D02*
X45990Y17500D01*
X50155D02*
X48489D01*
X47656Y18333D01*
Y19999D01*
X48489Y20832D01*
X50155D01*
X50988Y19999D01*
Y19166D01*
X47656D01*
X53487Y17500D02*
Y21665D01*
Y19999D01*
X52654D01*
X54320D01*
X53487D01*
Y21665D01*
X54320Y22498D01*
X56820D02*
Y17500D01*
X59319D01*
X60152Y18333D01*
Y21665D01*
X59319Y22498D01*
X56820D01*
X64317Y17500D02*
X62651D01*
X61818Y18333D01*
Y19999D01*
X62651Y20832D01*
X64317D01*
X65150Y19999D01*
Y19166D01*
X61818D01*
X66816Y17500D02*
X69315D01*
X70149Y18333D01*
X69315Y19166D01*
X67649D01*
X66816Y19999D01*
X67649Y20832D01*
X70149D01*
X81665Y115418D02*
X82498Y116251D01*
Y117917D01*
X81665Y118750D01*
X78333D01*
X77500Y117917D01*
Y116251D01*
X78333Y115418D01*
X82498Y110419D02*
Y113752D01*
X79999D01*
Y112085D01*
Y113752D01*
X77500D01*
X81665Y108753D02*
X82498Y107920D01*
Y106254D01*
X81665Y105421D01*
X80832D01*
X79999Y106254D01*
Y107087D01*
Y106254D01*
X79166Y105421D01*
X78333D01*
X77500Y106254D01*
Y107920D01*
X78333Y108753D01*
X337500Y61750D02*
X342498D01*
Y59251D01*
X341665Y58418D01*
X339999D01*
X339166Y59251D01*
Y61750D01*
Y60084D02*
X337500Y58418D01*
Y56752D02*
Y55085D01*
Y55919D01*
X342498D01*
X341665Y56752D01*
X337500Y52586D02*
Y50920D01*
Y51753D01*
X342498D01*
X341665Y52586D01*
X322500Y61750D02*
X327498D01*
Y59251D01*
X326665Y58418D01*
X324999D01*
X324166Y59251D01*
Y61750D01*
Y60084D02*
X322500Y58418D01*
X327498Y53419D02*
Y56752D01*
X324999D01*
Y55085D01*
Y56752D01*
X322500D01*
Y48421D02*
Y51753D01*
X325832Y48421D01*
X326665D01*
X327498Y49254D01*
Y50920D01*
X326665Y51753D01*
X342500Y108250D02*
X337502D01*
Y110749D01*
X338335Y111582D01*
X340001D01*
X340834Y110749D01*
Y108250D01*
Y109916D02*
X342500Y111582D01*
X337502Y116581D02*
Y113248D01*
X340001D01*
X339168Y114915D01*
Y115748D01*
X340001Y116581D01*
X341667D01*
X342500Y115748D01*
Y114081D01*
X341667Y113248D01*
X327500Y108250D02*
X322502D01*
Y110749D01*
X323335Y111582D01*
X325001D01*
X325834Y110749D01*
Y108250D01*
Y109916D02*
X327500Y111582D01*
X322502Y116581D02*
Y113248D01*
X325001D01*
Y114915D01*
Y113248D01*
X327500D01*
Y118247D02*
Y119913D01*
Y119080D01*
X322502D01*
X323335Y118247D01*
X216665Y115418D02*
X217498Y116251D01*
Y117917D01*
X216665Y118750D01*
X213333D01*
X212500Y117917D01*
Y116251D01*
X213333Y115418D01*
X212500Y111252D02*
X217498D01*
X214999Y113752D01*
Y110419D01*
X202500Y102313D02*
X197502D01*
Y104812D01*
X198335Y105645D01*
X200001D01*
X200834Y104812D01*
Y102313D01*
Y103979D02*
X202500Y105645D01*
Y110644D02*
Y107311D01*
X199168Y110644D01*
X198335D01*
X197502Y109811D01*
Y108144D01*
X198335Y107311D01*
M02*
