G04*
G04 #@! TF.GenerationSoftware,Altium Limited,Altium Designer,26.1.1 (7)*
G04*
G04 Layer_Color=255*
%FSLAX25Y25*%
%MOIN*%
G70*
G04*
G04 #@! TF.SameCoordinates,567AFDD2-51B0-4D06-BB96-2A6C27C88ABC*
G04*
G04*
G04 #@! TF.FilePolarity,Positive*
G04*
G01*
G75*
%ADD28R,0.04724X0.04724*%
%ADD30R,0.05400X0.05400*%
%ADD31C,0.04724*%
%ADD33R,0.04200X0.04200*%
%ADD34C,0.04200*%
%ADD35C,0.05400*%
%ADD36R,0.05200X0.05200*%
%ADD37C,0.05200*%
%ADD46C,0.06319*%
%ADD47C,0.04528*%
%ADD48R,0.06319X0.06319*%
%ADD49R,0.06319X0.06319*%
%ADD50R,0.04528X0.04528*%
%ADD51R,0.04528X0.04528*%
D28*
X30000Y130012D02*
D03*
X45000Y99988D02*
D03*
D30*
X215000Y115000D02*
D03*
Y45000D02*
D03*
X340000Y71000D02*
D03*
X325000D02*
D03*
X340000Y99000D02*
D03*
X325000D02*
D03*
D31*
X290000Y18160D02*
D03*
Y61467D02*
D03*
X275000Y60000D02*
D03*
X370000Y71653D02*
D03*
X275000Y98347D02*
D03*
X370000D02*
D03*
X45000Y130012D02*
D03*
X290000Y98533D02*
D03*
Y141840D02*
D03*
X355000Y98347D02*
D03*
Y141654D02*
D03*
X30000Y99988D02*
D03*
X370000Y28346D02*
D03*
Y141654D02*
D03*
X275000D02*
D03*
X355000Y28346D02*
D03*
Y71653D02*
D03*
X275000Y16693D02*
D03*
D33*
X200000Y65000D02*
D03*
Y95000D02*
D03*
D34*
Y22874D02*
D03*
Y137126D02*
D03*
D35*
X215000Y65000D02*
D03*
X340000Y25000D02*
D03*
X325000D02*
D03*
X340000Y145000D02*
D03*
X325000D02*
D03*
X215000Y95000D02*
D03*
D36*
X40315Y20000D02*
D03*
D37*
X60000D02*
D03*
D46*
X10000Y120000D02*
D03*
Y130000D02*
D03*
X394938Y10000D02*
D03*
X495000Y130000D02*
D03*
X404938Y10000D02*
D03*
X414938D02*
D03*
X10000Y110000D02*
D03*
X495000D02*
D03*
Y120000D02*
D03*
D47*
X410621Y40000D02*
D03*
Y125000D02*
D03*
X464843Y55000D02*
D03*
Y110000D02*
D03*
X245000Y134843D02*
D03*
Y25315D02*
D03*
D48*
X424938Y10000D02*
D03*
D49*
X10000Y100000D02*
D03*
X495000D02*
D03*
D50*
X390936Y40000D02*
D03*
X445157Y55000D02*
D03*
Y110000D02*
D03*
X390936Y125000D02*
D03*
D51*
X245000Y115157D02*
D03*
Y45000D02*
D03*
M02*
