G04*
G04 #@! TF.GenerationSoftware,Altium Limited,Altium Designer,26.1.1 (7)*
G04*
G04 Layer_Color=255*
%FSLAX25Y25*%
%MOIN*%
G70*
G04*
G04 #@! TF.SameCoordinates,40B09838-E256-44F2-8D17-04887A04782F*
G04*
G04*
G04 #@! TF.FilePolarity,Positive*
G04*
G01*
G75*
%ADD17R,0.02992X0.05512*%
%ADD18R,0.05700X0.04200*%
G04:AMPARAMS|DCode=19|XSize=43.31mil|YSize=23.62mil|CornerRadius=2.01mil|HoleSize=0mil|Usage=FLASHONLY|Rotation=90.000|XOffset=0mil|YOffset=0mil|HoleType=Round|Shape=RoundedRectangle|*
%AMROUNDEDRECTD19*
21,1,0.04331,0.01961,0,0,90.0*
21,1,0.03929,0.02362,0,0,90.0*
1,1,0.00402,0.00980,0.01965*
1,1,0.00402,0.00980,-0.01965*
1,1,0.00402,-0.00980,-0.01965*
1,1,0.00402,-0.00980,0.01965*
%
%ADD19ROUNDEDRECTD19*%
G04:AMPARAMS|DCode=22|XSize=53.35mil|YSize=18.73mil|CornerRadius=9.37mil|HoleSize=0mil|Usage=FLASHONLY|Rotation=270.000|XOffset=0mil|YOffset=0mil|HoleType=Round|Shape=RoundedRectangle|*
%AMROUNDEDRECTD22*
21,1,0.05335,0.00000,0,0,270.0*
21,1,0.03462,0.01873,0,0,270.0*
1,1,0.01873,0.00000,-0.01731*
1,1,0.01873,0.00000,0.01731*
1,1,0.01873,0.00000,0.01731*
1,1,0.01873,0.00000,-0.01731*
%
%ADD22ROUNDEDRECTD22*%
%ADD23R,0.01873X0.05335*%
%ADD24R,0.04724X0.04724*%
%ADD25C,0.04724*%
%ADD26R,0.05400X0.05400*%
%ADD31C,0.05200*%
%ADD34C,0.05400*%
%ADD35R,0.04200X0.04200*%
%ADD36C,0.04200*%
%ADD38R,0.05200X0.05200*%
%ADD40R,0.04173X0.04016*%
%ADD41R,0.04016X0.04173*%
%ADD42R,0.13780X0.35433*%
%ADD43C,0.04528*%
%ADD44C,0.06319*%
%ADD45R,0.06319X0.06319*%
%ADD46R,0.06319X0.06319*%
%ADD47R,0.04528X0.04528*%
%ADD48R,0.04528X0.04528*%
D17*
X115156Y10933D02*
D03*
X170156Y15933D02*
D03*
X120156Y85933D02*
D03*
X125156Y99437D02*
D03*
X175156Y89181D02*
D03*
X180156Y102685D02*
D03*
X170156D02*
D03*
X115156Y99437D02*
D03*
X180156Y15933D02*
D03*
X115156Y24437D02*
D03*
X120156D02*
D03*
X125156D02*
D03*
Y10933D02*
D03*
X170156Y29437D02*
D03*
X175156D02*
D03*
X180156D02*
D03*
X125156Y85933D02*
D03*
X115156D02*
D03*
X180156Y89181D02*
D03*
X170156D02*
D03*
D18*
X70000Y108650D02*
D03*
X80000D02*
D03*
X70000Y101350D02*
D03*
X80000D02*
D03*
D19*
X305000Y34882D02*
D03*
Y125118D02*
D03*
X308740D02*
D03*
X301260D02*
D03*
Y114882D02*
D03*
X308740D02*
D03*
X301260Y45118D02*
D03*
X308740D02*
D03*
Y34882D02*
D03*
X301260D02*
D03*
D22*
X115156Y36895D02*
D03*
X125156Y45933D02*
D03*
X170156Y42857D02*
D03*
X115156Y57857D02*
D03*
X124844Y66046D02*
D03*
X170156Y60933D02*
D03*
X180352Y69008D02*
D03*
Y50933D02*
D03*
D23*
X115156Y44970D02*
D03*
X125156Y37857D02*
D03*
X170156Y50933D02*
D03*
X115156Y65933D02*
D03*
X124844Y57971D02*
D03*
X170156Y69008D02*
D03*
X180352Y60933D02*
D03*
Y42857D02*
D03*
D24*
X30000Y130012D02*
D03*
X45000Y99988D02*
D03*
D25*
Y130012D02*
D03*
X275000Y60000D02*
D03*
Y98347D02*
D03*
X370000D02*
D03*
Y71653D02*
D03*
X30000Y99988D02*
D03*
X370000Y28346D02*
D03*
X355000Y141654D02*
D03*
Y98347D02*
D03*
X370000Y141654D02*
D03*
X290000D02*
D03*
Y98347D02*
D03*
X275000Y141654D02*
D03*
X355000Y28346D02*
D03*
Y71653D02*
D03*
X290000Y61654D02*
D03*
X275000Y16693D02*
D03*
X290000Y18347D02*
D03*
D26*
X215000Y45000D02*
D03*
Y115000D02*
D03*
X340000Y71000D02*
D03*
X325000D02*
D03*
X340000Y99000D02*
D03*
X325000D02*
D03*
D31*
X60000Y20000D02*
D03*
D34*
X340000Y25000D02*
D03*
X325000D02*
D03*
X340000Y145000D02*
D03*
X325000D02*
D03*
X215000Y95000D02*
D03*
Y65000D02*
D03*
D35*
X200000Y95000D02*
D03*
Y65000D02*
D03*
D36*
Y137126D02*
D03*
Y22874D02*
D03*
D38*
X40315Y20000D02*
D03*
D40*
X77134Y93156D02*
D03*
X82866D02*
D03*
D41*
X100000Y115000D02*
D03*
Y109268D02*
D03*
D42*
X9488Y59095D02*
D03*
X70512Y70906D02*
D03*
D43*
X410621Y125000D02*
D03*
Y40000D02*
D03*
X464843Y55000D02*
D03*
Y110000D02*
D03*
X245000Y134843D02*
D03*
Y25315D02*
D03*
D44*
X10000Y130000D02*
D03*
Y120000D02*
D03*
X394938Y10000D02*
D03*
X495000Y130000D02*
D03*
X10000Y110000D02*
D03*
X495000D02*
D03*
Y120000D02*
D03*
X414938Y10000D02*
D03*
X404938D02*
D03*
D45*
X10000Y100000D02*
D03*
X495000D02*
D03*
D46*
X424938Y10000D02*
D03*
D47*
X390936Y40000D02*
D03*
X445157Y55000D02*
D03*
Y110000D02*
D03*
X390936Y125000D02*
D03*
D48*
X245000Y115157D02*
D03*
Y45000D02*
D03*
M02*
