G04*
G04 #@! TF.GenerationSoftware,Altium Limited,Altium Designer,26.1.1 (7)*
G04*
G04 Layer_Color=2752767*
%FSLAX25Y25*%
%MOIN*%
G70*
G04*
G04 #@! TF.SameCoordinates,567AFDD2-51B0-4D06-BB96-2A6C27C88ABC*
G04*
G04*
G04 #@! TF.FilePolarity,Positive*
G04*
G01*
G75*
%ADD54C,0.00200*%
%ADD55C,0.00267*%
D54*
X289600Y17760D02*
Y17360D01*
X290400D01*
Y17760D01*
X290800D01*
Y18560D01*
X290400D01*
Y18960D01*
X289600D01*
Y18560D01*
X289200D01*
Y17760D01*
X289600D01*
Y61067D02*
Y60667D01*
X290400D01*
Y61067D01*
X290800D01*
Y61867D01*
X290400D01*
Y62267D01*
X289600D01*
Y61867D01*
X289200D01*
Y61067D01*
X289600D01*
X9200Y120000D02*
X10000Y120800D01*
X10800Y120000D01*
X10000Y119200D01*
X9200Y120000D01*
Y130000D02*
X10000Y130800D01*
X10800Y130000D01*
X10000Y129200D01*
X9200Y130000D01*
X30000Y129212D02*
X29200Y130812D01*
X30800D01*
X30000Y129212D01*
X274600Y59600D02*
Y59200D01*
X275400D01*
Y59600D01*
X275800D01*
Y60400D01*
X275400D01*
Y60800D01*
X274600D01*
Y60400D01*
X274200D01*
Y59600D01*
X274600D01*
X394138Y10000D02*
X394938Y10800D01*
X395738Y10000D01*
X394938Y9200D01*
X394138Y10000D01*
X369600Y71254D02*
Y70854D01*
X370400D01*
Y71254D01*
X370800D01*
Y72053D01*
X370400D01*
Y72453D01*
X369600D01*
Y72053D01*
X369200D01*
Y71254D01*
X369600D01*
X410221Y39600D02*
Y39200D01*
X411021D01*
Y39600D01*
X411421D01*
Y40400D01*
X411021D01*
Y40800D01*
X410221D01*
Y40400D01*
X409821D01*
Y39600D01*
X410221D01*
X274600Y97947D02*
Y97546D01*
X275400D01*
Y97947D01*
X275800D01*
Y98747D01*
X275400D01*
Y99146D01*
X274600D01*
Y98747D01*
X274200D01*
Y97947D01*
X274600D01*
X214200Y114200D02*
X214600Y115000D01*
X214200Y115800D01*
X215000Y115400D01*
X215800Y115800D01*
X215400Y115000D01*
X215800Y114200D01*
X215000Y114600D01*
X214200Y114200D01*
X369600Y97947D02*
Y97546D01*
X370400D01*
Y97947D01*
X370800D01*
Y98747D01*
X370400D01*
Y99146D01*
X369600D01*
Y98747D01*
X369200D01*
Y97947D01*
X369600D01*
X410221Y124600D02*
Y124200D01*
X411021D01*
Y124600D01*
X411421D01*
Y125400D01*
X411021D01*
Y125800D01*
X410221D01*
Y125400D01*
X409821D01*
Y124600D01*
X410221D01*
X494200Y130000D02*
X495000Y130800D01*
X495800Y130000D01*
X495000Y129200D01*
X494200Y130000D01*
X214200Y44200D02*
X214600Y45000D01*
X214200Y45800D01*
X215000Y45400D01*
X215800Y45800D01*
X215400Y45000D01*
X215800Y44200D01*
X215000Y44600D01*
X214200Y44200D01*
X45000Y129212D02*
X44200Y130812D01*
X45800D01*
X45000Y129212D01*
X289600Y98133D02*
Y97733D01*
X290400D01*
Y98133D01*
X290800D01*
Y98933D01*
X290400D01*
Y99333D01*
X289600D01*
Y98933D01*
X289200D01*
Y98133D01*
X289600D01*
Y141440D02*
Y141040D01*
X290400D01*
Y141440D01*
X290800D01*
Y142240D01*
X290400D01*
Y142640D01*
X289600D01*
Y142240D01*
X289200D01*
Y141440D01*
X289600D01*
X424138Y10000D02*
X424938Y10800D01*
X425738Y10000D01*
X424938Y9200D01*
X424138Y10000D01*
X45000Y99188D02*
X44200Y100788D01*
X45800D01*
X45000Y99188D01*
X200000Y64200D02*
X200400Y64600D01*
X200800D01*
X200400Y65000D01*
X200800Y65400D01*
X200400D01*
X200000Y65800D01*
X199600Y65400D01*
X199200D01*
X199600Y65000D01*
X199200Y64600D01*
X199600D01*
X200000Y64200D01*
Y22074D02*
X200400Y22474D01*
X200800D01*
X200400Y22874D01*
X200800Y23274D01*
X200400D01*
X200000Y23674D01*
X199600Y23274D01*
X199200D01*
X199600Y22874D01*
X199200Y22474D01*
X199600D01*
X200000Y22074D01*
X214200Y64200D02*
X214600Y65000D01*
X214200Y65800D01*
X215000Y65400D01*
X215800Y65800D01*
X215400Y65000D01*
X215800Y64200D01*
X215000Y64600D01*
X214200Y64200D01*
X404138Y10000D02*
X404938Y10800D01*
X405738Y10000D01*
X404938Y9200D01*
X404138Y10000D01*
X414138D02*
X414938Y10800D01*
X415738Y10000D01*
X414938Y9200D01*
X414138Y10000D01*
X354600Y97947D02*
Y97546D01*
X355400D01*
Y97947D01*
X355800D01*
Y98747D01*
X355400D01*
Y99146D01*
X354600D01*
Y98747D01*
X354200D01*
Y97947D01*
X354600D01*
Y141253D02*
Y140854D01*
X355400D01*
Y141253D01*
X355800D01*
Y142053D01*
X355400D01*
Y142454D01*
X354600D01*
Y142053D01*
X354200D01*
Y141253D01*
X354600D01*
X30000Y99188D02*
X29200Y100788D01*
X30800D01*
X30000Y99188D01*
X9200Y110000D02*
X10000Y110800D01*
X10800Y110000D01*
X10000Y109200D01*
X9200Y110000D01*
Y100000D02*
X10000Y100800D01*
X10800Y100000D01*
X10000Y99200D01*
X9200Y100000D01*
X494200D02*
X495000Y100800D01*
X495800Y100000D01*
X495000Y99200D01*
X494200Y100000D01*
Y110000D02*
X495000Y110800D01*
X495800Y110000D01*
X495000Y109200D01*
X494200Y110000D01*
Y120000D02*
X495000Y120800D01*
X495800Y120000D01*
X495000Y119200D01*
X494200Y120000D01*
X390536Y39600D02*
Y39200D01*
X391336D01*
Y39600D01*
X391736D01*
Y40400D01*
X391336D01*
Y40800D01*
X390536D01*
Y40400D01*
X390136D01*
Y39600D01*
X390536D01*
X464442Y54600D02*
Y54200D01*
X465242D01*
Y54600D01*
X465642D01*
Y55400D01*
X465242D01*
Y55800D01*
X464442D01*
Y55400D01*
X464043D01*
Y54600D01*
X464442D01*
X444758D02*
Y54200D01*
X445557D01*
Y54600D01*
X445958D01*
Y55400D01*
X445557D01*
Y55800D01*
X444758D01*
Y55400D01*
X444357D01*
Y54600D01*
X444758D01*
Y109600D02*
Y109200D01*
X445557D01*
Y109600D01*
X445958D01*
Y110400D01*
X445557D01*
Y110800D01*
X444758D01*
Y110400D01*
X444357D01*
Y109600D01*
X444758D01*
X464442D02*
Y109200D01*
X465242D01*
Y109600D01*
X465642D01*
Y110400D01*
X465242D01*
Y110800D01*
X464442D01*
Y110400D01*
X464043D01*
Y109600D01*
X464442D01*
X390536Y124600D02*
Y124200D01*
X391336D01*
Y124600D01*
X391736D01*
Y125400D01*
X391336D01*
Y125800D01*
X390536D01*
Y125400D01*
X390136D01*
Y124600D01*
X390536D01*
X339200Y70200D02*
X339600Y71000D01*
X339200Y71800D01*
X340000Y71400D01*
X340800Y71800D01*
X340400Y71000D01*
X340800Y70200D01*
X340000Y70600D01*
X339200Y70200D01*
Y24200D02*
X339600Y25000D01*
X339200Y25800D01*
X340000Y25400D01*
X340800Y25800D01*
X340400Y25000D01*
X340800Y24200D01*
X340000Y24600D01*
X339200Y24200D01*
X324200D02*
X324600Y25000D01*
X324200Y25800D01*
X325000Y25400D01*
X325800Y25800D01*
X325400Y25000D01*
X325800Y24200D01*
X325000Y24600D01*
X324200Y24200D01*
Y70200D02*
X324600Y71000D01*
X324200Y71800D01*
X325000Y71400D01*
X325800Y71800D01*
X325400Y71000D01*
X325800Y70200D01*
X325000Y70600D01*
X324200Y70200D01*
X369600Y27946D02*
Y27547D01*
X370400D01*
Y27946D01*
X370800D01*
Y28747D01*
X370400D01*
Y29147D01*
X369600D01*
Y28747D01*
X369200D01*
Y27946D01*
X369600D01*
Y141253D02*
Y140854D01*
X370400D01*
Y141253D01*
X370800D01*
Y142053D01*
X370400D01*
Y142454D01*
X369600D01*
Y142053D01*
X369200D01*
Y141253D01*
X369600D01*
X339200Y144200D02*
X339600Y145000D01*
X339200Y145800D01*
X340000Y145400D01*
X340800Y145800D01*
X340400Y145000D01*
X340800Y144200D01*
X340000Y144600D01*
X339200Y144200D01*
Y98200D02*
X339600Y99000D01*
X339200Y99800D01*
X340000Y99400D01*
X340800Y99800D01*
X340400Y99000D01*
X340800Y98200D01*
X340000Y98600D01*
X339200Y98200D01*
X324200D02*
X324600Y99000D01*
X324200Y99800D01*
X325000Y99400D01*
X325800Y99800D01*
X325400Y99000D01*
X325800Y98200D01*
X325000Y98600D01*
X324200Y98200D01*
Y144200D02*
X324600Y145000D01*
X324200Y145800D01*
X325000Y145400D01*
X325800Y145800D01*
X325400Y145000D01*
X325800Y144200D01*
X325000Y144600D01*
X324200Y144200D01*
X274600Y141253D02*
Y140854D01*
X275400D01*
Y141253D01*
X275800D01*
Y142053D01*
X275400D01*
Y142454D01*
X274600D01*
Y142053D01*
X274200D01*
Y141253D01*
X274600D01*
X214200Y94200D02*
X214600Y95000D01*
X214200Y95800D01*
X215000Y95400D01*
X215800Y95800D01*
X215400Y95000D01*
X215800Y94200D01*
X215000Y94600D01*
X214200Y94200D01*
X200000D02*
X200400Y94600D01*
X200800D01*
X200400Y95000D01*
X200800Y95400D01*
X200400D01*
X200000Y95800D01*
X199600Y95400D01*
X199200D01*
X199600Y95000D01*
X199200Y94600D01*
X199600D01*
X200000Y94200D01*
Y136326D02*
X200400Y136726D01*
X200800D01*
X200400Y137126D01*
X200800Y137526D01*
X200400D01*
X200000Y137926D01*
X199600Y137526D01*
X199200D01*
X199600Y137126D01*
X199200Y136726D01*
X199600D01*
X200000Y136326D01*
X244600Y134442D02*
Y134043D01*
X245400D01*
Y134442D01*
X245800D01*
Y135242D01*
X245400D01*
Y135643D01*
X244600D01*
Y135242D01*
X244200D01*
Y134442D01*
X244600D01*
Y114758D02*
Y114357D01*
X245400D01*
Y114758D01*
X245800D01*
Y115558D01*
X245400D01*
Y115957D01*
X244600D01*
Y115558D01*
X244200D01*
Y114758D01*
X244600D01*
X354600Y27946D02*
Y27547D01*
X355400D01*
Y27946D01*
X355800D01*
Y28747D01*
X355400D01*
Y29147D01*
X354600D01*
Y28747D01*
X354200D01*
Y27946D01*
X354600D01*
Y71254D02*
Y70854D01*
X355400D01*
Y71254D01*
X355800D01*
Y72053D01*
X355400D01*
Y72453D01*
X354600D01*
Y72053D01*
X354200D01*
Y71254D01*
X354600D01*
X274600Y16293D02*
Y15893D01*
X275400D01*
Y16293D01*
X275800D01*
Y17093D01*
X275400D01*
Y17493D01*
X274600D01*
Y17093D01*
X274200D01*
Y16293D01*
X274600D01*
X244600Y44600D02*
Y44200D01*
X245400D01*
Y44600D01*
X245800D01*
Y45400D01*
X245400D01*
Y45800D01*
X244600D01*
Y45400D01*
X244200D01*
Y44600D01*
X244600D01*
Y24915D02*
Y24515D01*
X245400D01*
Y24915D01*
X245800D01*
Y25715D01*
X245400D01*
Y26115D01*
X244600D01*
Y25715D01*
X244200D01*
Y24915D01*
X244600D01*
X314200Y59200D02*
X314600D01*
X315000Y59600D01*
X315400Y59200D01*
X315800D01*
Y59600D01*
X315400Y60000D01*
X315800Y60400D01*
Y60800D01*
X315400D01*
X315000Y60400D01*
X314600Y60800D01*
X314200D01*
Y60400D01*
X314600Y60000D01*
X314200Y59600D01*
Y59200D01*
X83768Y79200D02*
X84168D01*
X84569Y79600D01*
X84969Y79200D01*
X85369D01*
Y79600D01*
X84969Y80000D01*
X85369Y80400D01*
Y80800D01*
X84969D01*
X84569Y80400D01*
X84168Y80800D01*
X83768D01*
Y80400D01*
X84168Y80000D01*
X83768Y79600D01*
Y79200D01*
X114356Y75133D02*
X114756D01*
X115156Y75533D01*
X115556Y75133D01*
X115956D01*
Y75533D01*
X115556Y75933D01*
X115956Y76333D01*
Y76733D01*
X115556D01*
X115156Y76333D01*
X114756Y76733D01*
X114356D01*
Y76333D01*
X114756Y75933D01*
X114356Y75533D01*
Y75133D01*
X19200Y119200D02*
X19600D01*
X20000Y119600D01*
X20400Y119200D01*
X20800D01*
Y119600D01*
X20400Y120000D01*
X20800Y120400D01*
Y120800D01*
X20400D01*
X20000Y120400D01*
X19600Y120800D01*
X19200D01*
Y120400D01*
X19600Y120000D01*
X19200Y119600D01*
Y119200D01*
X134200Y109200D02*
X134600D01*
X135000Y109600D01*
X135400Y109200D01*
X135800D01*
Y109600D01*
X135400Y110000D01*
X135800Y110400D01*
Y110800D01*
X135400D01*
X135000Y110400D01*
X134600Y110800D01*
X134200D01*
Y110400D01*
X134600Y110000D01*
X134200Y109600D01*
Y109200D01*
X214200Y34200D02*
X214600D01*
X215000Y34600D01*
X215400Y34200D01*
X215800D01*
Y34600D01*
X215400Y35000D01*
X215800Y35400D01*
Y35800D01*
X215400D01*
X215000Y35400D01*
X214600Y35800D01*
X214200D01*
Y35400D01*
X214600Y35000D01*
X214200Y34600D01*
Y34200D01*
X429200Y29200D02*
X429600D01*
X430000Y29600D01*
X430400Y29200D01*
X430800D01*
Y29600D01*
X430400Y30000D01*
X430800Y30400D01*
Y30800D01*
X430400D01*
X430000Y30400D01*
X429600Y30800D01*
X429200D01*
Y30400D01*
X429600Y30000D01*
X429200Y29600D01*
Y29200D01*
X169200Y79200D02*
X169600D01*
X170000Y79600D01*
X170400Y79200D01*
X170800D01*
Y79600D01*
X170400Y80000D01*
X170800Y80400D01*
Y80800D01*
X170400D01*
X170000Y80400D01*
X169600Y80800D01*
X169200D01*
Y80400D01*
X169600Y80000D01*
X169200Y79600D01*
Y79200D01*
X274200D02*
X274600D01*
X275000Y79600D01*
X275400Y79200D01*
X275800D01*
Y79600D01*
X275400Y80000D01*
X275800Y80400D01*
Y80800D01*
X275400D01*
X275000Y80400D01*
X274600Y80800D01*
X274200D01*
Y80400D01*
X274600Y80000D01*
X274200Y79600D01*
Y79200D01*
X179356Y110133D02*
X179756D01*
X180156Y110533D01*
X180556Y110133D01*
X180956D01*
Y110533D01*
X180556Y110933D01*
X180956Y111333D01*
Y111733D01*
X180556D01*
X180156Y111333D01*
X179756Y111733D01*
X179356D01*
Y111333D01*
X179756Y110933D01*
X179356Y110533D01*
Y110133D01*
X214200Y124200D02*
X214600D01*
X215000Y124600D01*
X215400Y124200D01*
X215800D01*
Y124600D01*
X215400Y125000D01*
X215800Y125400D01*
Y125800D01*
X215400D01*
X215000Y125400D01*
X214600Y125800D01*
X214200D01*
Y125400D01*
X214600Y125000D01*
X214200Y124600D01*
Y124200D01*
X429200Y134200D02*
X429600D01*
X430000Y134600D01*
X430400Y134200D01*
X430800D01*
Y134600D01*
X430400Y135000D01*
X430800Y135400D01*
Y135800D01*
X430400D01*
X430000Y135400D01*
X429600Y135800D01*
X429200D01*
Y135400D01*
X429600Y135000D01*
X429200Y134600D01*
Y134200D01*
X479200Y139200D02*
X479600D01*
X480000Y139600D01*
X480400Y139200D01*
X480800D01*
Y139600D01*
X480400Y140000D01*
X480800Y140400D01*
Y140800D01*
X480400D01*
X480000Y140400D01*
X479600Y140800D01*
X479200D01*
Y140400D01*
X479600Y140000D01*
X479200Y139600D01*
Y139200D01*
X99200Y9200D02*
X99600D01*
X100000Y9600D01*
X100400Y9200D01*
X100800D01*
Y9600D01*
X100400Y10000D01*
X100800Y10400D01*
Y10800D01*
X100400D01*
X100000Y10400D01*
X99600Y10800D01*
X99200D01*
Y10400D01*
X99600Y10000D01*
X99200Y9600D01*
Y9200D01*
X163200Y10436D02*
X163600D01*
X164000Y10836D01*
X164400Y10436D01*
X164800D01*
Y10836D01*
X164400Y11236D01*
X164800Y11636D01*
Y12036D01*
X164400D01*
X164000Y11636D01*
X163600Y12036D01*
X163200D01*
Y11636D01*
X163600Y11236D01*
X163200Y10836D01*
Y10436D01*
X334200Y84200D02*
X334600D01*
X335000Y84600D01*
X335400Y84200D01*
X335800D01*
Y84600D01*
X335400Y85000D01*
X335800Y85400D01*
Y85800D01*
X335400D01*
X335000Y85400D01*
X334600Y85800D01*
X334200D01*
Y85400D01*
X334600Y85000D01*
X334200Y84600D01*
Y84200D01*
X158907Y18907D02*
X159307D01*
X159707Y19307D01*
X160107Y18907D01*
X160507D01*
Y19307D01*
X160107Y19707D01*
X160507Y20107D01*
Y20507D01*
X160107D01*
X159707Y20107D01*
X159307Y20507D01*
X158907D01*
Y20107D01*
X159307Y19707D01*
X158907Y19307D01*
Y18907D01*
X134200Y14200D02*
X134600D01*
X135000Y14600D01*
X135400Y14200D01*
X135800D01*
Y14600D01*
X135400Y15000D01*
X135800Y15400D01*
Y15800D01*
X135400D01*
X135000Y15400D01*
X134600Y15800D01*
X134200D01*
Y15400D01*
X134600Y15000D01*
X134200Y14600D01*
Y14200D01*
X131845Y5294D02*
X132245D01*
X132645Y5694D01*
X133045Y5294D01*
X133445D01*
Y5694D01*
X133045Y6094D01*
X133445Y6494D01*
Y6894D01*
X133045D01*
X132645Y6494D01*
X132245Y6894D01*
X131845D01*
Y6494D01*
X132245Y6094D01*
X131845Y5694D01*
Y5294D01*
X187097Y2813D02*
X187497D01*
X187897Y3213D01*
X188297Y2813D01*
X188697D01*
Y3213D01*
X188297Y3613D01*
X188697Y4013D01*
Y4413D01*
X188297D01*
X187897Y4013D01*
X187497Y4413D01*
X187097D01*
Y4013D01*
X187497Y3613D01*
X187097Y3213D01*
Y2813D01*
X149200Y79200D02*
X149600D01*
X150000Y79600D01*
X150400Y79200D01*
X150800D01*
Y79600D01*
X150400Y80000D01*
X150800Y80400D01*
Y80800D01*
X150400D01*
X150000Y80400D01*
X149600Y80800D01*
X149200D01*
Y80400D01*
X149600Y80000D01*
X149200Y79600D01*
Y79200D01*
X484200Y109200D02*
X484600D01*
X485000Y109600D01*
X485400Y109200D01*
X485800D01*
Y109600D01*
X485400Y110000D01*
X485800Y110400D01*
Y110800D01*
X485400D01*
X485000Y110400D01*
X484600Y110800D01*
X484200D01*
Y110400D01*
X484600Y110000D01*
X484200Y109600D01*
Y109200D01*
D55*
X41115Y20000D02*
G03*
X41115Y20000I-800J0D01*
G01*
X60800D02*
G03*
X60800Y20000I-800J0D01*
G01*
M02*
