G04*
G04 #@! TF.GenerationSoftware,Altium Limited,Altium Designer,26.1.1 (7)*
G04*
G04 Layer_Color=16711935*
%FSLAX25Y25*%
%MOIN*%
G70*
G04*
G04 #@! TF.SameCoordinates,40B09838-E256-44F2-8D17-04887A04782F*
G04*
G04*
G04 #@! TF.FilePolarity,Negative*
G04*
G01*
G75*
%ADD24R,0.04724X0.04724*%
%ADD25C,0.04724*%
%ADD26R,0.05400X0.05400*%
%ADD27C,0.05524*%
%ADD28C,0.05328*%
%ADD29C,0.07119*%
%ADD30R,0.07119X0.07119*%
%ADD31C,0.05200*%
%ADD32R,0.07119X0.07119*%
%ADD33R,0.05328X0.05328*%
%ADD34C,0.05400*%
%ADD35R,0.04200X0.04200*%
%ADD36C,0.04200*%
%ADD37R,0.05328X0.05328*%
%ADD38R,0.05200X0.05200*%
%ADD39C,0.05800*%
D24*
X30000Y130012D02*
D03*
X45000Y99988D02*
D03*
D25*
Y130012D02*
D03*
X30000Y99988D02*
D03*
D26*
X215000Y45000D02*
D03*
Y115000D02*
D03*
X340000Y71000D02*
D03*
X325000D02*
D03*
X340000Y99000D02*
D03*
X325000D02*
D03*
D27*
X275000Y60000D02*
D03*
Y98347D02*
D03*
X370000D02*
D03*
Y71653D02*
D03*
Y28346D02*
D03*
X355000Y141654D02*
D03*
Y98347D02*
D03*
X370000Y141654D02*
D03*
X290000D02*
D03*
Y98347D02*
D03*
X275000Y141654D02*
D03*
X355000Y28346D02*
D03*
Y71653D02*
D03*
X290000Y61654D02*
D03*
X275000Y16693D02*
D03*
X290000Y18347D02*
D03*
D28*
X410621Y125000D02*
D03*
Y40000D02*
D03*
X464843Y55000D02*
D03*
Y110000D02*
D03*
X245000Y134843D02*
D03*
Y25315D02*
D03*
D29*
X10000Y130000D02*
D03*
Y120000D02*
D03*
X394938Y10000D02*
D03*
X495000Y130000D02*
D03*
X10000Y110000D02*
D03*
X495000D02*
D03*
Y120000D02*
D03*
X414938Y10000D02*
D03*
X404938D02*
D03*
D30*
X10000Y100000D02*
D03*
X495000D02*
D03*
D31*
X60000Y20000D02*
D03*
D32*
X424938Y10000D02*
D03*
D33*
X390936Y40000D02*
D03*
X445157Y55000D02*
D03*
Y110000D02*
D03*
X390936Y125000D02*
D03*
D34*
X340000Y25000D02*
D03*
X325000D02*
D03*
X340000Y145000D02*
D03*
X325000D02*
D03*
X215000Y95000D02*
D03*
Y65000D02*
D03*
D35*
X200000Y95000D02*
D03*
Y65000D02*
D03*
D36*
Y137126D02*
D03*
Y22874D02*
D03*
D37*
X245000Y115157D02*
D03*
Y45000D02*
D03*
D38*
X40315Y20000D02*
D03*
D39*
X84569Y80000D02*
D03*
X100156Y5933D02*
D03*
X115156Y75933D02*
D03*
X160156Y10933D02*
D03*
X20000Y120000D02*
D03*
X300000Y25000D02*
D03*
X215000Y35000D02*
D03*
X275000Y80000D02*
D03*
X180156Y110933D02*
D03*
X215000Y125000D02*
D03*
X430000Y135000D02*
D03*
X305000D02*
D03*
X480000Y140000D02*
D03*
X355000Y10000D02*
D03*
X430000Y30000D02*
D03*
X170000Y80000D02*
D03*
X135000Y110000D02*
D03*
X485000D02*
D03*
X305000Y85000D02*
D03*
M02*
