G04*
G04 #@! TF.GenerationSoftware,Altium Limited,Altium Designer,26.1.1 (7)*
G04*
G04 Layer_Color=255*
%FSLAX25Y25*%
%MOIN*%
G70*
G04*
G04 #@! TF.SameCoordinates,AD48AC31-CD0A-4DEB-A0E8-E0C0F2C227C1*
G04*
G04*
G04 #@! TF.FilePolarity,Positive*
G04*
G01*
G75*
%ADD26R,0.04724X0.04724*%
%ADD27C,0.04724*%
%ADD28R,0.04200X0.04200*%
%ADD29C,0.04200*%
%ADD30C,0.05400*%
%ADD31R,0.05400X0.05400*%
%ADD32R,0.05200X0.05200*%
%ADD33C,0.05200*%
%ADD44R,0.06319X0.06319*%
%ADD45C,0.06319*%
%ADD46C,0.04528*%
%ADD47R,0.06319X0.06319*%
%ADD48R,0.04528X0.04528*%
%ADD49R,0.04528X0.04528*%
D26*
X45000Y99988D02*
D03*
X30000Y130012D02*
D03*
D27*
X45000D02*
D03*
X370000Y98347D02*
D03*
X275000D02*
D03*
X370000Y71653D02*
D03*
X275000Y60000D02*
D03*
X355000Y98347D02*
D03*
Y141654D02*
D03*
X30000Y99988D02*
D03*
X370000Y28346D02*
D03*
Y141654D02*
D03*
X290000D02*
D03*
Y98347D02*
D03*
X275000Y141654D02*
D03*
X355000Y28346D02*
D03*
Y71653D02*
D03*
X290000Y61654D02*
D03*
X275000Y16693D02*
D03*
X290000Y18347D02*
D03*
D28*
X200000Y65000D02*
D03*
Y95000D02*
D03*
D29*
Y22874D02*
D03*
Y137126D02*
D03*
D30*
X215000Y65000D02*
D03*
X340000Y25000D02*
D03*
X325000D02*
D03*
X340000Y145000D02*
D03*
X325000D02*
D03*
X215000Y95000D02*
D03*
D31*
Y45000D02*
D03*
Y115000D02*
D03*
X340000Y71000D02*
D03*
X325000D02*
D03*
X340000Y99000D02*
D03*
X325000D02*
D03*
D32*
X40315Y20000D02*
D03*
D33*
X60000D02*
D03*
D44*
X424938Y10000D02*
D03*
D45*
X404938D02*
D03*
X495000Y130000D02*
D03*
X394938Y10000D02*
D03*
X10000Y130000D02*
D03*
Y120000D02*
D03*
X414938Y10000D02*
D03*
X10000Y110000D02*
D03*
X495000D02*
D03*
Y120000D02*
D03*
D46*
X410621Y125000D02*
D03*
Y40000D02*
D03*
X464843Y55000D02*
D03*
Y110000D02*
D03*
X245000Y134843D02*
D03*
Y25315D02*
D03*
D47*
X10000Y100000D02*
D03*
X495000D02*
D03*
D48*
X390936Y40000D02*
D03*
X445157Y55000D02*
D03*
Y110000D02*
D03*
X390936Y125000D02*
D03*
D49*
X245000Y115157D02*
D03*
Y45000D02*
D03*
M02*
