G04*
G04 #@! TF.GenerationSoftware,Altium Limited,Altium Designer,26.1.1 (7)*
G04*
G04 Layer_Color=8388736*
%FSLAX25Y25*%
%MOIN*%
G70*
G04*
G04 #@! TF.SameCoordinates,567AFDD2-51B0-4D06-BB96-2A6C27C88ABC*
G04*
G04*
G04 #@! TF.FilePolarity,Negative*
G04*
G01*
G75*
G04:AMPARAMS|DCode=17|XSize=33.59mil|YSize=72.96mil|CornerRadius=5.92mil|HoleSize=0mil|Usage=FLASHONLY|Rotation=0.000|XOffset=0mil|YOffset=0mil|HoleType=Round|Shape=RoundedRectangle|*
%AMROUNDEDRECTD17*
21,1,0.03359,0.06112,0,0,0.0*
21,1,0.02175,0.07296,0,0,0.0*
1,1,0.01184,0.01088,-0.03056*
1,1,0.01184,-0.01088,-0.03056*
1,1,0.01184,-0.01088,0.03056*
1,1,0.01184,0.01088,0.03056*
%
%ADD17ROUNDEDRECTD17*%
%ADD18R,0.05700X0.04200*%
%ADD19R,0.04816X0.04973*%
%ADD20R,0.02992X0.05512*%
%ADD21R,0.04973X0.04816*%
%ADD22R,0.04200X0.01100*%
%ADD23R,0.14580X0.36233*%
%ADD24R,0.01873X0.05335*%
G04:AMPARAMS|DCode=25|XSize=53.35mil|YSize=18.73mil|CornerRadius=9.37mil|HoleSize=0mil|Usage=FLASHONLY|Rotation=90.000|XOffset=0mil|YOffset=0mil|HoleType=Round|Shape=RoundedRectangle|*
%AMROUNDEDRECTD25*
21,1,0.05335,0.00000,0,0,90.0*
21,1,0.03462,0.01873,0,0,90.0*
1,1,0.01873,0.00000,0.01731*
1,1,0.01873,0.00000,-0.01731*
1,1,0.01873,0.00000,-0.01731*
1,1,0.01873,0.00000,0.01731*
%
%ADD25ROUNDEDRECTD25*%
%ADD26C,0.05524*%
%ADD27C,0.07119*%
%ADD28R,0.04724X0.04724*%
%ADD29C,0.05328*%
%ADD30R,0.05400X0.05400*%
%ADD31C,0.04724*%
%ADD32R,0.07119X0.07119*%
%ADD33R,0.04200X0.04200*%
%ADD34C,0.04200*%
%ADD35C,0.05400*%
%ADD36R,0.05200X0.05200*%
%ADD37C,0.05200*%
%ADD38R,0.07119X0.07119*%
%ADD39R,0.05328X0.05328*%
%ADD40R,0.05328X0.05328*%
%ADD41C,0.05800*%
D17*
X297500Y68878D02*
D03*
X302500D02*
D03*
X307500D02*
D03*
X312500D02*
D03*
X297500Y91122D02*
D03*
X302500D02*
D03*
X307500D02*
D03*
X312500D02*
D03*
D18*
X80000Y108650D02*
D03*
X70000D02*
D03*
Y101350D02*
D03*
X80000D02*
D03*
D19*
X100000Y115000D02*
D03*
Y109268D02*
D03*
D20*
X175156Y89181D02*
D03*
X180156Y102685D02*
D03*
X120156Y85933D02*
D03*
X125156Y99437D02*
D03*
X170156Y15933D02*
D03*
X115156Y10933D02*
D03*
X125156D02*
D03*
Y24437D02*
D03*
X120156D02*
D03*
X115156D02*
D03*
X180156Y29437D02*
D03*
X175156D02*
D03*
X170156D02*
D03*
X180156Y15933D02*
D03*
X115156Y85933D02*
D03*
X125156D02*
D03*
X115156Y99437D02*
D03*
X170156Y89181D02*
D03*
X180156D02*
D03*
X170156Y102685D02*
D03*
D21*
X82866Y93156D02*
D03*
X77134D02*
D03*
D22*
X141578Y6175D02*
D03*
X152778Y12175D02*
D03*
Y10175D02*
D03*
Y8175D02*
D03*
Y6175D02*
D03*
X141578Y8175D02*
D03*
Y10175D02*
D03*
Y12175D02*
D03*
D23*
X70512Y70906D02*
D03*
X9488Y59095D02*
D03*
D24*
X124844Y57971D02*
D03*
X125156Y37857D02*
D03*
X115156Y65933D02*
D03*
Y44970D02*
D03*
X170156Y50933D02*
D03*
X180352Y42857D02*
D03*
Y60933D02*
D03*
X170156Y69008D02*
D03*
D25*
X124844Y66046D02*
D03*
X125156Y45933D02*
D03*
X115156Y57857D02*
D03*
Y36895D02*
D03*
X170156Y42857D02*
D03*
X180352Y50933D02*
D03*
Y69008D02*
D03*
X170156Y60933D02*
D03*
D26*
X290000Y18160D02*
D03*
Y61467D02*
D03*
X275000Y60000D02*
D03*
X370000Y71653D02*
D03*
X275000Y98347D02*
D03*
X370000D02*
D03*
X290000Y98533D02*
D03*
Y141840D02*
D03*
X355000Y98347D02*
D03*
Y141654D02*
D03*
X370000Y28346D02*
D03*
Y141654D02*
D03*
X275000D02*
D03*
X355000Y28346D02*
D03*
Y71653D02*
D03*
X275000Y16693D02*
D03*
D27*
X10000Y120000D02*
D03*
Y130000D02*
D03*
X394938Y10000D02*
D03*
X495000Y130000D02*
D03*
X404938Y10000D02*
D03*
X414938D02*
D03*
X10000Y110000D02*
D03*
X495000D02*
D03*
Y120000D02*
D03*
D28*
X30000Y130012D02*
D03*
X45000Y99988D02*
D03*
D29*
X410621Y40000D02*
D03*
Y125000D02*
D03*
X464843Y55000D02*
D03*
Y110000D02*
D03*
X245000Y134843D02*
D03*
Y25315D02*
D03*
D30*
X215000Y115000D02*
D03*
Y45000D02*
D03*
X340000Y71000D02*
D03*
X325000D02*
D03*
X340000Y99000D02*
D03*
X325000D02*
D03*
D31*
X45000Y130012D02*
D03*
X30000Y99988D02*
D03*
D32*
X424938Y10000D02*
D03*
D33*
X200000Y65000D02*
D03*
Y95000D02*
D03*
D34*
Y22874D02*
D03*
Y137126D02*
D03*
D35*
X215000Y65000D02*
D03*
X340000Y25000D02*
D03*
X325000D02*
D03*
X340000Y145000D02*
D03*
X325000D02*
D03*
X215000Y95000D02*
D03*
D36*
X40315Y20000D02*
D03*
D37*
X60000D02*
D03*
D38*
X10000Y100000D02*
D03*
X495000D02*
D03*
D39*
X390936Y40000D02*
D03*
X445157Y55000D02*
D03*
Y110000D02*
D03*
X390936Y125000D02*
D03*
D40*
X245000Y115157D02*
D03*
Y45000D02*
D03*
D41*
X315000Y60000D02*
D03*
X84569Y80000D02*
D03*
X115156Y75933D02*
D03*
X20000Y120000D02*
D03*
X135000Y110000D02*
D03*
X215000Y35000D02*
D03*
X430000Y30000D02*
D03*
X170000Y80000D02*
D03*
X275000D02*
D03*
X180156Y110933D02*
D03*
X215000Y125000D02*
D03*
X430000Y135000D02*
D03*
X480000Y140000D02*
D03*
X100000Y10000D02*
D03*
X164000Y11236D02*
D03*
X335000Y85000D02*
D03*
X159707Y19707D02*
D03*
X135000Y15000D02*
D03*
X132645Y6094D02*
D03*
X187897Y3613D02*
D03*
X150000Y80000D02*
D03*
X485000Y110000D02*
D03*
M02*
